<ttFont>
          <CharString index="0">
            rmoveto
            -6 -59 -7.9900054931640625 -54 0.9900054931640625 -52 rrcurveto
            -276.00999450683594 5.0200042724609375 152.99000549316406 -167.97000122070312 298 hhcurveto
            341 204 170.97999572753906 472 61 hvcurveto
            113.99000549316406 903 rlineto
            -193 hlineto
            -111.99000549316406 -886 rlineto
            -358.00999450683594 -45.02000427246094 -128 -140.99000549316406 -214 hhcurveto
            -175 -101.99000549316406 34 callsubr
            195 -4 hvcurveto
            -1 57 5 62 7.9900054931640625 -37 callsubr
            114.00999450683594 902 rcurveline
            -198 hlineto
            -118 -937 rlineto
            endchar
          </CharString>
          <CharString index="1">
            rmoveto
            -351.00999450683594 -237 -321 -401 -9.990005493164062 hvcurveto
            -228 -6 116 -221.97999572753906 283 hhcurveto
            194 159 122.97999572753906 79.00999450683594 57 hvcurveto
            -55 110.99000549316406 rlineto
            -106.99000549316406 -114 -118 -52 -100 hhcurveto
            -79 callgsubr
            141 -89 109 -192 vhcurveto
            84.99000549316406 -267 rmoveto
            -197 -309.97999572753906 -121.02000427246094 -162.02000427246094 258 callsubr
            20 120 268 204 hhcurveto
            74.02000427246094 53.99000549316406 -28 -90.99000549316406 hvcurveto
            endchar
          </CharString>
          <CharString index="2">
            rmoveto
            -336 -242.02000427246094 -348 -363.00999450683594 6 hvcurveto
            -291 5 132.02000427246094 -169.97999572753906 252.99000549316406 hhcurveto
            336 232.02000427246094 348.9700012207031 363.00999450683594 -6 hvcurveto
            291 -5.0200042724609375 -122 169 -252.99000549316406 hhcurveto
            -152 -1025 rmoveto
            -146 -68 117 199 -3 hvcurveto
            249 -5 115 313 228 hhcurveto
            146 57 -115 -199 3 hvcurveto
            -249 5 -104 -315 -228 hhcurveto
            endchar
          </CharString>
          <CharString index="3">
            rmoveto
            -343 6 159.99000549316406 -282.97999572753906 325.02000427246094 208 callsubr
            343 -6 -159.99000549316406 282.00999450683594 -325 120 callgsubr
            991 273 rmoveto
            -74 callgsubr
            -211 -99 159 353 -6.9900054931640625 hvcurveto
            380 -7 192 361 282.99000549316406 hhcurveto
            211 100 -153 -352.99000549316406 6 hvcurveto
            endchar
          </CharString>
          <CharString index="4">
            rmoveto
            -191 hlineto
            6 -46.02000427246094 -30 -173 -12 -52 callsubr
            -41 -232 -65 -111 -109 -175 125 callgsubr
            -182 rcurveline
            -12 205 -23 callsubr
            781 rlineto
            -214 hlineto
            108 callgsubr
            -223 -47 -232 48 callsubr
            -178 -103 -164.99000549316406 rlinecurve
            -134 -188 -10.020004272460938 205 -71 781 rlineto
            -217.99000549316406 hlineto
            113.99000549316406 -781 58 -374.97999572753906 175 12 151 187.97999572753906 83 99 -53 callgsubr
            153 65 155 rlinecurve
            32.99000549316406 -232 58 -374.97999572753906 175 12 151 181.97999572753906 173 208 176 326 25 312.02000427246094 rlinecurve
            4 46 2 24.990005493164062 -3 45.02000427246094 rrcurveto
            endchar
          </CharString>
          <CharString index="5">
            rmoveto
            -406 -314 -371 -548 10 hvcurveto
            -310.00999450683594 5 124.00999450683594 -332.97999572753906 374 hhcurveto
            266 133 callgsubr
            69.97999572753906 30 39.02000427246094 hvcurveto
            -30 166 rlineto
            -32 -39 -140.99000549316406 -76 -179.02000427246094 hhcurveto
            -228.99000549316406 -103 224 281.99000549316406 -5.0200042724609375 hvcurveto
            286 -5 118.00999450683594 445.99000549316406 387.99000549316406 hhcurveto
            163 68.02000427246094 -6 callgsubr
            -17.020004272460938 30.990005493164062 hvcurveto
            70 164 40 callsubr
            18 rlineto
            24 123 callgsubr
            -71.99000549316406 25 -130 hhcurveto
            endchar
          </CharString>
          <CharString index="6">
            rmoveto
            -37 -171 rlineto
            -30 35 128 -28.970001220703125 -68 callsubr
            hhcurveto
            229 165 104.97999572753906 206 168 -118 94 -103 76 callgsubr
            hvcurveto
            -85.02000427246094 70 -67.99000549316406 52 105 vvcurveto
            100 89 41 104 132 74 -60 -14.990005493164062 11.020004272460938 vhcurveto
            hintmask 10111000
            59 callsubr
            183 rlineto
            hintmask 11011000
            46 callgsubr
            -203 -177 -108.00999450683594 -204.99000549316406 -162.02000427246094 93 -85 133 callsubr
            -48 callgsubr
            hvcurveto
            100 39 callsubr
            -50 callsubr
            -46 -48 callgsubr
            vvcurveto
            -112 -95 -30 48 callsubr
            -130 -48 callgsubr
            73 callgsubr
            27.020004272460938 -41 vhcurveto
            endchar
          </CharString>
          <CharString index="7">
            hhcurveto
            -11 callsubr
            57 callsubr
            -28 -182 -23 -171.99000549316406 rrcurveto
            196 hlineto
            25 169 29 184 22 155 callgsubr
            return
          </CharString>
          <CharString index="8">
            rmoveto
            -65 122 callgsubr
            -14 callsubr
            209 callsubr
            -28 -372 -94 callgsubr
            endchar
          </CharString>
          <CharString index="9">
            rmoveto
            -82 -94 callsubr
            -93 12 -60 -1 callgsubr
            153 1218.009994506836 rcurveline
            10 40 87 -52 callgsubr
            53 hhcurveto
            303.97999572753906 121.02000427246094 -125.00999450683594 -368.99000549316406 6 hvcurveto
            6 -359.02000427246094 -161.02000427246094 -401 -373.99000549316406 -12 rrcurveto
            return
          </CharString>
          <CharString index="10">
            -74 -215 -15.009994506835938 216 -116 1094 rlineto
            -189.99000549316406 hlineto
            24 -217 -343 -878 -61 -215 -47 callgsubr
            216 -140 1094 219 callgsubr
            232 -1539.990005493164 rlineto
            204 hlineto
            330 859.9700012207031 56 173.02000427246094 12.990005493164062 124 callsubr
            -50 callgsubr
            -859.9700012207031 rlineto
            202 hlineto
            629 1539.990005493164 rlineto
            return
          </CharString>
          <CharString index="11">
            rmoveto
            -385 -194.99000549316406 -409 -313 -283 -68 callsubr
            -166.99000549316406 246 176 -68 callsubr
            112.97999572753906 69 51.02000427246094 hvcurveto
            -65 106 rlineto
            -97.00999450683594 -100 -75 -41.99000549316406 -88 hhcurveto
            -134 -74 79 callgsubr
            238 324.00999450683594 77 callsubr
            231 170 72 62 -14.990005493164062 -43 52 hvcurveto
            return
          </CharString>
          <CharString index="12">
            -15.990005493164062 return
          </CharString>
          <CharString index="13">
            -2.9900054931640625 return
          </CharString>
          <CharString index="14">
            rmoveto
            -88 -55 89 215 237 129 336 286 54.99000549316406 212 callgsubr
            -15 44 hvcurveto
            39 callsubr
            -607 rlineto
            -105 -69 -130 -141 -140.99000549316406 hhcurveto
            endchar
          </CharString>
          <CharString index="15">
            -192.99000549316406 -60 callsubr
            return
          </CharString>
          <CharString index="16">
            -76 -589.9900054931641 rlineto
            188 hlineto
            76 589.9900054931641 593 940.0099945068359 rlineto
            -212 hlineto
            -412 -692.0200042724609 36 callgsubr
            -75.99000549316406 -32 75.99000549316406 -248 692.0200042724609 rlineto
            -212 hlineto
            return
          </CharString>
          <CharString index="17">
            -88 callgsubr
            -48.99000549316406 53 -76 hhcurveto
            32 callgsubr
            return
          </CharString>
          <CharString index="18">
            rmoveto
            186 callsubr
            192.99000549316406 -5 callsubr
            -197.97999572753906 hlineto
            return
          </CharString>
          <CharString index="19">
            rmoveto
            hintmask 01100100
            -86 callsubr
            hintmask 10100100
            -82 callgsubr
            hintmask 01010100
            -13 callsubr
            1059 -1243.009994506836 rmoveto
            hintmask 01001100
            780 1141 rlineto
            hintmask 01100100
            -25.009994506835938 86.02000427246094 rlineto
            -898 183 callgsubr
            27.020004272460938 -88.99000549316406 rlineto
            960.9900054931641 hlineto
            28.020004272460938 -23 callgsubr
            -752 -12 rlineto
            hintmask 01010100
            124 145 rlineto
            hintmask 10010100
            -1216 -169 -98 callsubr
            endchar
          </CharString>
          <CharString index="20">
            rmoveto
            -88 -55 89 215 237 129 336 286 73 callgsubr
            212 callgsubr
            -16 43.99000549316406 hvcurveto
            -81.97999572753906 -599 rlineto
            -105 -30 callsubr
            -133 -148 -144 hhcurveto
            endchar
          </CharString>
          <CharString index="21">
            -98.02000427246094 -134.99000549316406 -16 -91.02000427246094 hhcurveto
            -94 41 callgsubr
            100.99000549316406 hlineto
            56.02000427246094 97 -5 -4 45 hvcurveto
            return
          </CharString>
          <CharString index="22">
            -95 callsubr
            153.99000549316406 286.97999572753906 139.00999450683594 443.99000549316406 148 return
          </CharString>
          <CharString index="23">
            528.0200042724609 -99 callsubr
          </CharString>
          <CharString index="24">
            -52 callgsubr
            -48 -51 6 -44 -44 callsubr
            157 -68 callsubr
            105.97999572753906 104 77 hvcurveto
            return
          </CharString>
          <CharString index="25">
            4.0200042724609375 -49.99000549316406 hhcurveto
            -245 -141 -179.02000427246094 -268 -36 hvcurveto
            -13.990005493164062 -93.99000549316406 rlineto
            return
          </CharString>
          <CharString index="26">
            80 171 callgsubr
            3 166 callsubr
            -90 callsubr
            -18 callsubr
            return
          </CharString>
          <CharString index="27">
            195 -45 callgsubr
            -211 hlineto
            21 151 16.020004272460938 126 67.99000549316406 59 callgsubr
            24 -18 rrcurveto
            return
          </CharString>
          <CharString index="28">
            212 callsubr
            hintmask 10101000
            19 203.02000427246094 rlineto
            -185 hlineto
            -156.02000427246094 200 callsubr
            92 672.9900054931641 rlineto
            hintmask 11001000
            171 callsubr
            79.02000427246094 139.97999572753906 99 85.00999450683594 hhcurveto
            60 callsubr
            29 -4 -10 109 callgsubr
            hvcurveto
            hintmask 10011000
            43.99000549316406 208 rlineto
            hintmask 11001000
            11 -11 -30 2 134 callgsubr
            hhcurveto
            endchar
          </CharString>
          <CharString index="29">
            rmoveto
            138 197 -88.99000549316406 49 -130 -185.02000427246094 rlineto
            26.009994506835938 -51 97 callgsubr
            13.990005493164062 -71.99000549316406 hhcurveto
            -336.02000427246094 -242 -348 -362.99000549316406 6 hvcurveto
            2 -135 30 -109 56 177 callgsubr
            -144 -207.99000549316406 rcurveline
            -22 callgsubr
            -48.99000549316406 128 217 callsubr
            rlineto
            -43 60 76 -23 93 hhcurveto
            336 232 349 363 -6 hvcurveto
            -94 callsubr
            157.99000549316406 -37 122 -74 79.00999450683594 rrcurveto
            -297 -46 rmoveto
            43.99000549316406 37 -11 -29 callsubr
            29 hvcurveto
            -430 -676 -11 41 -6 49 -1 -48 callsubr
            rlinecurve
            249.02000427246094 -5 115 313 228 hhcurveto
            -121 -878 rmoveto
            -64 -49 22 42 -35 hvcurveto
            443 697 21.009994506835938 -51 10 -66 1 -80 rlinecurve
            -249 5 -104 -315 -228 hhcurveto
            endchar
          </CharString>
          <CharString index="30">
            rlineto
            195 hlineto
            98 248 callgsubr
            rlineto
            135 105 168 121 111 hhcurveto
            65 57 callsubr
            -29 -186 -23 -171.99000549316406 rrcurveto
            196 hlineto
            25 168.97999572753906 29.990005493164062 188 160 callgsubr
            155 callgsubr
            208 -74.02000427246094 82 -147.99000549316406 vhcurveto
            endchar
          </CharString>
          <CharString index="31">
            -194.99000549316406 hlineto
            return
          </CharString>
          <CharString index="32">
            155 0 -72 callsubr
            return
          </CharString>
          <CharString index="33">
            21.009994506835938 224 rlineto
            -185 hlineto
            -155.02000427246094 -1136 -16 callgsubr
            189 callgsubr
            710 rlineto
            return
          </CharString>
          <CharString index="34">
            -56.96000671386719 -102 callgsubr
            return
          </CharString>
          <CharString index="35">
            43 352.97999572753906 52 callsubr
            805.0099945068359 178 -66 callsubr
            return
          </CharString>
          <CharString index="36">
            -412.02000427246094 -303.97999572753906 -406 -530 10 hvcurveto
            return
          </CharString>
          <CharString index="37">
            0 -68 callgsubr
            return
          </CharString>
          <CharString index="38">
            -56 callgsubr
            hstem
            4 callgsubr
            205 vstem
            return
          </CharString>
          <CharString index="39">
            130.99000549316406 return
          </CharString>
          <CharString index="40">
            -22 -217.99000549316406 rlineto
            181.99000549316406 hlineto
            151 238 callsubr
            return
          </CharString>
          <CharString index="41">
            -40.94999694824219 -102 callgsubr
            return
          </CharString>
          <CharString index="42">
            -48 52 rlineto
            -723 hlineto
            -22 -44 callgsubr
            538.9900054931641 hlineto
            -159.99000549316406 -169 -578.9900054931641 -756 57.97999572753906 -58.97999572753906 rlineto
            777.0099945068359 hlineto
            15 156 rlineto
            -597 hlineto
            return
          </CharString>
          <CharString index="43">
            rmoveto
            -223 -1634 -16 callgsubr
            222.99000549316406 1634 -58 callgsubr
            return
          </CharString>
          <CharString index="44">
            -15.990005493164062 -31 callgsubr
            return
          </CharString>
          <CharString index="45">
            rmoveto
            -54 callgsubr
            -194.99000549316406 hlineto
            hintmask 10110000
            28 callgsubr
            endchar
          </CharString>
          <CharString index="46">
            -16 -189.99000549316406 rlineto
            172 hlineto
            156.02000427246094 35 callgsubr
            return
          </CharString>
          <CharString index="47">
            -1530 rlineto
            return
          </CharString>
          <CharString index="48">
            -530 0 43 1446.0299987792969 43 callsubr
            127 461.97999572753906 -264.989990234375 75 callsubr
            hintmask 00000000
            hintmask 11010100
            323.99000549316406 -69 callgsubr
            hintmask 11100100
            86 callsubr
            hintmask 11010100
            -65 -75 220 callsubr
            hintmask 11011000
            203 callsubr
            -285 -89 callsubr
            endchar
          </CharString>
          <CharString index="49">
            80 -50.02000427246094 rlineto
            -53 callgsubr
            -12 callgsubr
            return
          </CharString>
          <CharString index="50">
            -32 callsubr
            251.99000549316406 263 -126.989990234375 249 callsubr
            return
          </CharString>
          <CharString index="51">
            rmoveto
            -92 callsubr
            185 hlineto
            126 149 callsubr
            rlineto
            return
          </CharString>
          <CharString index="52">
            rmoveto
            -175 -1384 rlineto
            198 hlineto
            175 1384 420 -11 49 callgsubr
            157 rlineto
            -1043.990005493164 hlineto
            110 callgsubr
            -157 427.00999450683594 11 rlineto
            return
          </CharString>
          <CharString index="53">
            hlineto
            -60 -23 -30 -144 229 callgsubr
            69 -14.990005493164062 hvcurveto
            -2 11 -1 11.020004272460938 return
          </CharString>
          <CharString index="54">
            692 846.9900054931641 rmoveto
            615 683 rlineto
            -232 hlineto
            -671.0099945068359 -772.0099945068359 97 772.0099945068359 rlineto
            -198 41 callgsubr
            198 hlineto
            62 488.97999572753906 196 218 50 -88 234 callsubr
            -144 72 -136 rlinecurve
            86 -162 79.02000427246094 -150 215 callgsubr
            -26.990005493164062 rrcurveto
            238 hlineto
            -69 102.99000549316406 -52 callsubr
            116 -68 121 -92.02000427246094 163 -93.99000549316406 175 -105 169 rrcurveto
            return
          </CharString>
          <CharString index="55">
            -66.99000549316406 return
          </CharString>
          <CharString index="56">
            -238 -63 callsubr
            -40.94999694824219 40.96000671386719 hstemhm
            -23 callgsubr
            188 180 194 hintmask 11011000
            return
          </CharString>
          <CharString index="57">
            61.99000549316406 return
          </CharString>
          <CharString index="58">
            -95 callsubr
            -51 callgsubr
            return
          </CharString>
          <CharString index="59">
            54.99000549316406 return
          </CharString>
          <CharString index="60">
            72.99000549316406 return
          </CharString>
          <CharString index="61">
            1661.990005493164 rmoveto
            253 callsubr
            243 211 131 callsubr
            return
          </CharString>
          <CharString index="62">
            -42 callgsubr
            88 callgsubr
            -20 callgsubr
            return
          </CharString>
          <CharString index="63">
            hhcurveto
            40 callgsubr
            -197 135 callsubr
            -259.99000549316406 98 -171.99000549316406 212 return
          </CharString>
          <CharString index="64">
            -60 -501 159 326.00999450683594 43 -43 -47 callsubr
            1042.0299987792969 32 callsubr
            808.9799957275391 191.00999450683594 hintmask 11011000
            return
          </CharString>
          <CharString index="65">
            164.99000549316406 return
          </CharString>
          <CharString index="66">
            -205 -95 callsubr
            61 callgsubr
            875.9799957275391 16 callgsubr
            84.99000549316406 199 hintmask 11010000
            return
          </CharString>
          <CharString index="67">
            -54.99000549316406 return
          </CharString>
          <CharString index="68">
            -6 callsubr
            47.99000549316406 50 -6 43.99000549316406 hhcurveto
            451.00999450683594 197 426.97999572753906 313 260 -98 172 -212 hvcurveto
            -307 -1029 rmoveto
            -55 40 callsubr
            121 callgsubr
            -44.02000427246094 hvcurveto
            146 callgsubr
            609 rlineto
            -59 callgsubr
            68 133 142 143.99000549316406 hhcurveto
            88 55 -89.00999450683594 -215 -237 -129 -336 -286 hvcurveto
            endchar
          </CharString>
          <CharString index="69">
            -5 callgsubr
            16 callsubr
            return
          </CharString>
          <CharString index="70">
            73.00999450683594 return
          </CharString>
          <CharString index="71">
            77 callgsubr
            vstem
            1064 1839.979995727539 rmoveto
            -486.00999450683594 -384 -391 -485.99000549316406 -487 384 -394.02000427246094 486.00999450683594 485.99000549316406 385 394.02000427246094 487 485.99000549316406 -385 391 -485.99000549316406 hvcurveto
            -1629 vmoveto
            -419 -309 338 414 413 309 338 419 419 309 -338 -413 -414 -309 -338 -419 hvcurveto
            return
          </CharString>
          <CharString index="72">
            hlineto
            133 -5 callgsubr
            rlineto
            return
          </CharString>
          <CharString index="73">
            72 callsubr
            -48 -37 167 callgsubr
            -25.990005493164062 rlineto
            return
          </CharString>
          <CharString index="74">
            297 0 -23 callgsubr
            hstem
            -32.99000549316406 1364.990005493164 vstem
            730.9900054931641 187 callsubr
            -763.9799957275391 -1485.990005493164 12 -22 rlineto
            1335.9700012207031 hlineto
            17.020004272460938 26.990005493164062 -569.0200042724609 1480.990005493164 rlineto
            -47 callgsubr
            hlineto
            321 -1338 rmoveto
            -768 hlineto
            441 904.0099945068359 327 -904.0099945068359 rlineto
            endchar
          </CharString>
          <CharString index="75">
            0 43 940.9799957275391 156.00999450683594 return
          </CharString>
          <CharString index="76">
            108.00999450683594 163.99000549316406 vvcurveto
            return
          </CharString>
          <CharString index="77">
            -67.02000427246094 return
          </CharString>
          <CharString index="78">
            -20.009994506835938 return
          </CharString>
          <CharString index="79">
            -93.99000549316406 rlineto
            -132 -17 callsubr
            return
          </CharString>
          <CharString index="80">
            rmoveto
            -95 callgsubr
            return
          </CharString>
          <CharString index="81">
            -65 -3 -14 callsubr
            return
          </CharString>
          <CharString index="82">
            48 callgsubr
            206 785 -16 callsubr
            return
          </CharString>
          <CharString index="83">
            -240 -32.02000427246094 -46 156 callsubr
            192 callgsubr
            hhcurveto
            -11 21 callsubr
            -11 hvcurveto
            return
          </CharString>
          <CharString index="84">
            -73.00999450683594 return
          </CharString>
          <CharString index="85">
            1491.990005493164 rmoveto
            -7 callsubr
            hintmask 10100110
            114.00999450683594 133 callgsubr
            81 102.00999450683594 34 hvcurveto
            hintmask 10110010
            -85 -22 callgsubr
            rlineto
            -6 callgsubr
            36 callgsubr
            -32 97 callgsubr
            -74 hhcurveto
            hintmask 10101010
            5 callsubr
            -83.00999450683594 -86 -43 hvcurveto
            87 95 callsubr
            rlineto
            hintmask 10110010
            return
          </CharString>
          <CharString index="86">
            -1142 -475.00999450683594 rmoveto
            -176 95 -134 61 callsubr
            252 159.99000549316406 221 219 171.99000549316406 218 callgsubr
            123 -198 -239 -174 -212.99000549316406 -212 vhcurveto
            520 122 rmoveto
            -114 -64 -195 -149 -93 -53 77 112 118 233 callsubr
            61 callsubr
            151 86 49 -70 -111 vhcurveto
            return
          </CharString>
          <CharString index="87">
            263 -262.989990234375 43 hstemhm
            return
          </CharString>
          <CharString index="88">
            1658 rmoveto
            31 callsubr
            169 132 return
          </CharString>
          <CharString index="89">
            -67.02000427246094 71 callsubr
            return
          </CharString>
          <CharString index="90">
            hlineto
            -28 -44 callgsubr
            return
          </CharString>
          <CharString index="91">
            205.99000549316406 return
          </CharString>
          <CharString index="92">
            -14.009994506835938 -100 291 -22 -768.9799957275391 -1408 rlineto
            188 callsubr
            hlineto
            218.99000549316406 415.99000549316406 rlineto
            483 hlineto
            -52 172 callgsubr
            rlineto
            902 hlineto
            14.009994506835938 -42 callsubr
            -700.0099945068359 -16 72.00999450683594 560.9900054931641 443 -15 11.990005493164062 166 -437.99000549316406 -7 rlineto
            return
          </CharString>
          <CharString index="93">
            53 -55 65 hhcurveto
            8 callgsubr
            return
          </CharString>
          <CharString index="94">
            371 -6 -163.99000549316406 253 -407 hhcurveto
            return
          </CharString>
          <CharString index="95">
            145.97999572753906 203.00999450683594 return
          </CharString>
          <CharString index="96">
            64.99000549316406 return
          </CharString>
          <CharString index="97">
            43 callgsubr
            -73.02000427246094 66 callsubr
            return
          </CharString>
          <CharString index="98">
            552 -95 callsubr
            43 -43 -23 callgsubr
            945.0400085449219 32 callsubr
            48 callgsubr
            1519.1000061035156 -192.10000610351562 188 hintmask 10110000
            return
          </CharString>
          <CharString index="99">
            165.989990234375 -20 callsubr
            return
          </CharString>
          <CharString index="100">
            -2 111 17 -138 163 hhcurveto
            return
          </CharString>
          <CharString index="101">
            -8.990005493164062 return
          </CharString>
          <CharString index="102">
            1530 rlineto
            return
          </CharString>
          <CharString index="103">
            rmoveto
            59 -18 36.99000549316406 116 callgsubr
            -87.99000549316406 vvcurveto
            -125.00999450683594 -74 -109 -99.97999572753906 -49 vhcurveto
            -3 -21 -47 callsubr
            -89 rlineto
            183 66 128.99000549316406 172 222 vvcurveto
            -59 callgsubr
            36 callgsubr
            146 -153 58 vhcurveto
            -106 -128 -6.9900054931640625 -54 rlineto
            endchar
          </CharString>
          <CharString index="104">
            228 callsubr
            -32 -46 156 callsubr
            -177 101 callgsubr
            237 callsubr
            224 callsubr
            177 callsubr
            hvcurveto
            154 1136 rlineto
            return
          </CharString>
          <CharString index="105">
            43 905.9799957275391 207 164 callgsubr
            -37.97001647949219 32 callsubr
            return
          </CharString>
          <CharString index="106">
            80 89 callgsubr
            -63 callgsubr
            123 callgsubr
            13 callgsubr
            return
          </CharString>
          <CharString index="107">
            -22 callgsubr
            202.99000549316406 return
          </CharString>
          <CharString index="108">
            224 callgsubr
            -29 callsubr
            72 callsubr
            -6 callgsubr
            -37 vhcurveto
            -3 -25.990005493164062 rlineto
            return
          </CharString>
          <CharString index="109">
            106 392.99000549316406 rmoveto
            -217.99000549316406 4.0200042724609375 -163 149 callgsubr
            -198 hhcurveto
            -53 -65 53 callgsubr
            -88 callgsubr
            -52 hvcurveto
            176 callsubr
            534 rlineto
            8 49 76 callgsubr
            2 29 hhcurveto
            213 82 -72.00999450683594 -141 -88 callgsubr
            hvcurveto
            return
          </CharString>
          <CharString index="110">
            83 -71 35 callsubr
            28 callsubr
            return
          </CharString>
          <CharString index="111">
            hintmask 01100100
            -48 52 rlineto
            -722.9900054931641 hlineto
            110 callgsubr
            -44 callgsubr
            539.0099945068359 9 callsubr
            15.020004272460938 156 rlineto
            -597.0200042724609 hlineto
            143.02000427246094 150 rlineto
            return
          </CharString>
          <CharString index="112">
            -92 -32 140 -153 hhcurveto
            -104 -129.99000549316406 return
          </CharString>
          <CharString index="113">
            63 60 callgsubr
            -47 53 -76.99000549316406 hhcurveto
            -65 -75 -86 callgsubr
            return
          </CharString>
          <CharString index="114">
            hstem
            869.9900054931641 199 vstem
            846.9900054931641 143 callsubr
            -164 -169 -110 -137.02000427246094 -115 hvcurveto
            40 250 return
          </CharString>
          <CharString index="115">
            1288.990005493164 rmoveto
            20 callgsubr
            243 -307 rlineto
            176 hlineto
            return
          </CharString>
          <CharString index="116">
            hlineto
            -160 -169 -578.9900054931641 -756 58 -58.97999572753906 rlineto
            776.9900054931641 hlineto
            return
          </CharString>
          <CharString index="117">
            rmoveto
            -87 -686.0200042724609 rlineto
            -653 hlineto
            87 686.0200042724609 rlineto
            -198 41 callgsubr
            198 hlineto
            87.99000549316406 693.9900054931641 rlineto
            653 hlineto
            -88 -693.9900054931641 rlineto
            198 hlineto
            115 callgsubr
            -198 hlineto
            endchar
          </CharString>
          <CharString index="118">
            1264.990005493164 rmoveto
            85 70 25 callgsubr
            30 callgsubr
            rlinecurve
            return
          </CharString>
          <CharString index="119">
            206 -156 117.99000549316406 -146 99 return
          </CharString>
          <CharString index="120">
            25 callsubr
            174 callgsubr
            44 callsubr
            return
          </CharString>
          <CharString index="121">
            1315.979995727539 rmoveto
            77 -76.99000549316406 106 callgsubr
            return
          </CharString>
          <CharString index="122">
            31 -95 callsubr
            157.97999572753906 1237.990005493164 166 return
          </CharString>
          <CharString index="123">
            rmoveto
            -17 callgsubr
            return
          </CharString>
          <CharString index="124">
            1016 141 callgsubr
            155.99000549316406 827.989990234375 156.00999450683594 -127.00999450683594 143 -67.97999572753906 51.99000549316406 69 callsubr
            hintmask 01100100
            return
          </CharString>
          <CharString index="125">
            rmoveto
            120 callsubr
            -95 callgsubr
            return
          </CharString>
          <CharString index="126">
            rmoveto
            232 71 128 199 -5 244 rrcurveto
            225 -5 -161 129 -304 hhcurveto
            return
          </CharString>
          <CharString index="127">
            195.02000427246094 hlineto
            return
          </CharString>
          <CharString index="128">
            -47 callgsubr
            5 -52 callgsubr
            return
          </CharString>
          <CharString index="129">
            -434.99000549316406 -30 callgsubr
            return
          </CharString>
          <CharString index="130">
            -40.96000671386719 -102 callgsubr
            return
          </CharString>
          <CharString index="131">
            -61 callgsubr
            hintmask 00000000
            return
          </CharString>
          <CharString index="132">
            56 callgsubr
            56 -91 return
          </CharString>
          <CharString index="133">
            109 callsubr
            -35 callsubr
            return
          </CharString>
          <CharString index="134">
            47 callsubr
            hstemhm
            return
          </CharString>
          <CharString index="135">
            46 221 221 36 68 rlinecurve
            return
          </CharString>
          <CharString index="136">
            1547.979995727539 rmoveto
            165 callgsubr
            122 callsubr
            -149 38 callsubr
            149 rlineto
            return
          </CharString>
          <CharString index="137">
            0 -37 callgsubr
            return
          </CharString>
          <CharString index="138">
            144 callgsubr
            -50 callgsubr
            36 return
          </CharString>
          <CharString index="139">
            -102 callgsubr
            hstemhm
            return
          </CharString>
          <CharString index="140">
            1424 -34 callgsubr
            163.97999572753906 1205 161 -129.989990234375 146 -102.010009765625 86.00999450683594 260 callsubr
            return
          </CharString>
          <CharString index="141">
            95.99000549316406 return
          </CharString>
          <CharString index="142">
            118.99000549316406 return
          </CharString>
          <CharString index="143">
            101 callsubr
            44 callgsubr
            return
          </CharString>
          <CharString index="144">
            1658 63 callsubr
            return
          </CharString>
          <CharString index="145">
            rlineto
            509.00999450683594 hlineto
            5 return
          </CharString>
          <CharString index="146">
            -85.00999450683594 return
          </CharString>
          <CharString index="147">
            -53.99000549316406 return
          </CharString>
          <CharString index="148">
            116 87 58 36 42 vhcurveto
            -51.02000427246094 106 callsubr
            -55.99000549316406 -38 -6 -35.99000549316406 hhcurveto
            -23 -40.02000427246094 11 55 91 callgsubr
            hvcurveto
            return
          </CharString>
          <CharString index="149">
            -61 callsubr
            88 callsubr
            -34 rlineto
            return
          </CharString>
          <CharString index="150">
            -102 callgsubr
            -8 callsubr
            return
          </CharString>
          <CharString index="151">
            116 87 58 36 42 114 callsubr
            return
          </CharString>
          <CharString index="152">
            -124 128 -275.99000549316406 -342 return
          </CharString>
          <CharString index="153">
            198 116 163 -57 callgsubr
            return
          </CharString>
          <CharString index="154">
            251.989990234375 263 return
          </CharString>
          <CharString index="155">
            -94.99000549316406 return
          </CharString>
          <CharString index="156">
            1815 rmoveto
            23 callgsubr
            97 callsubr
            return
          </CharString>
          <CharString index="157">
            -612 rmoveto
            -93.02999877929688 -52.97999572753906 77 112 118 -47 callsubr
            61 callsubr
            151 86 49 -70 -111 -113.99000549316406 -64 -195 159 callsubr
            hvcurveto
            return
          </CharString>
          <CharString index="158">
            6 -25 100 -40 rlineto
            72.00999450683594 109 46 175 -68 callsubr
            vvcurveto
            97.00999450683594 return
          </CharString>
          <CharString index="159">
            150.99000549316406 return
          </CharString>
          <CharString index="160">
            -256 -362 1958.990005493164 hstem
            -93 1034.990005493164 vstem
            -93 -362 rmoveto
            171.99000549316406 hlineto
            863 1958.990005493164 rlineto
            -174 hlineto
            -861 -1958.990005493164 rlineto
            endchar
          </CharString>
          <CharString index="161">
            -132 0 216 callgsubr
            1321.5399932861328 -102 callgsubr
            return
          </CharString>
          <CharString index="162">
            34.02000427246094 52 -11 callsubr
            -1 return
          </CharString>
          <CharString index="163">
            100 callsubr
            199 return
          </CharString>
          <CharString index="164">
            40 -14.990005493164062 -106 -30 callsubr
            -17 -123.99000549316406 -22 -149 hvcurveto
            -23 -156 return
          </CharString>
          <CharString index="165">
            -37 callsubr
            84 callgsubr
            return
          </CharString>
          <CharString index="166">
            37.99000549316406 return
          </CharString>
          <CharString index="167">
            48.99000549316406 return
          </CharString>
          <CharString index="168">
            182.99000549316406 return
          </CharString>
          <CharString index="169">
            663 -10 43 110 callsubr
            82 callsubr
            return
          </CharString>
          <CharString index="170">
            rmoveto
            34 callgsubr
            return
          </CharString>
          <CharString index="171">
            25.990005493164062 return
          </CharString>
          <CharString index="172">
            rmoveto
            -92 callsubr
            198 hlineto
            176 callsubr
            529.9799957275391 rlineto
            -5 29 58 -5 95 hhcurveto
            364 257 244 393.00999450683594 -7 hvcurveto
            return
          </CharString>
          <CharString index="173">
            -69 13 callgsubr
            return
          </CharString>
          <CharString index="174">
            72 callgsubr
            28 callsubr
            return
          </CharString>
          <CharString index="175">
            128 callgsubr
            32 224 callgsubr
            return
          </CharString>
          <CharString index="176">
            hstemhm
            -41 callgsubr
            return
          </CharString>
          <CharString index="177">
            243 -307 219 callsubr
            return
          </CharString>
          <CharString index="178">
            -76 -94 callsubr
            hvcurveto
            return
          </CharString>
          <CharString index="179">
            -36.99000549316406 return
          </CharString>
          <CharString index="180">
            1148.990005493164 100 callgsubr
            45 callsubr
            73 196 callgsubr
            return
          </CharString>
          <CharString index="181">
            -48 callsubr
            54 return
          </CharString>
          <CharString index="182">
            264.99000549316406 return
          </CharString>
          <CharString index="183">
            89.99000549316406 return
          </CharString>
          <CharString index="184">
            193.99000549316406 return
          </CharString>
          <CharString index="185">
            129.99000549316406 return
          </CharString>
          <CharString index="186">
            hhcurveto
            -65 -75 -86 callgsubr
            -3 hvcurveto
            23 callgsubr
            419 hmoveto
            80 69 70 77 3 hvcurveto
            63 -88 callgsubr
            return
          </CharString>
          <CharString index="187">
            -497.99000549316406 hlineto
            endchar
          </CharString>
          <CharString index="188">
            -156 -1290 rlineto
            158 hlineto
            223 1290 rlineto
            -225.02000427246094 hlineto
            return
          </CharString>
          <CharString index="189">
            148 callgsubr
            1269.0299987792969 -102 callgsubr
            return
          </CharString>
          <CharString index="190">
            152 -73 callsubr
            return
          </CharString>
          <CharString index="191">
            128 -276.00999450683594 -342 return
          </CharString>
          <CharString index="192">
            211 -264.00999450683594 return
          </CharString>
          <CharString index="193">
            63 2 -47 53 -77 hhcurveto
            return
          </CharString>
          <CharString index="194">
            -102 callgsubr
            hstem
            return
          </CharString>
          <CharString index="195">
            -113.00999450683594 return
          </CharString>
          <CharString index="196">
            85 callsubr
            206 callsubr
            68.02000427246094 -190 373.99000549316406 10 callgsubr
            -373.99000549316406 return
          </CharString>
          <CharString index="197">
            -76 callgsubr
            endchar
          </CharString>
          <CharString index="198">
            -95 callsubr
            -57 callgsubr
            return
          </CharString>
          <CharString index="199">
            1326 rmoveto
            94 -54 94 54 139 179 -48 callsubr
            120 rlinecurve
            -145 117 -237 172 callgsubr
            rlineto
            425 hmoveto
            95 -54 return
          </CharString>
          <CharString index="200">
            -307.02000427246094 -401 83 -71 72 callgsubr
            46 221 221 36 return
          </CharString>
          <CharString index="201">
            47 callgsubr
            43 hvcurveto
            153.99000549316406 1136 rlineto
            return
          </CharString>
          <CharString index="202">
            -83.99000549316406 return
          </CharString>
          <CharString index="203">
            90.00999450683594 return
          </CharString>
          <CharString index="204">
            96 callgsubr
            71 70 77 3 hvcurveto
            6 callsubr
            return
          </CharString>
          <CharString index="205">
            25 -14 147 877.9900054931641 231 callgsubr
            76 callsubr
            202.99000549316406 544.0099945068359 159 callgsubr
            vstem
            return
          </CharString>
          <CharString index="206">
            -65 -94 callsubr
            return
          </CharString>
          <CharString index="207">
            hstemhm
            -59 callgsubr
            return
          </CharString>
          <CharString index="208">
            152 callgsubr
            -14.990005493164062 hvcurveto
            -2 11 -1 11 return
          </CharString>
          <CharString index="209">
            hhcurveto
            112 callsubr
            return
          </CharString>
          <CharString index="210">
            160.99000549316406 -1060.979995727539 140 124 callgsubr
            437 1070.979995727539 136 334.99000549316406 -24 -383 rlineto
            return
          </CharString>
          <CharString index="211">
            -173 216 46 callsubr
            22 vhcurveto
            2 11 return
          </CharString>
          <CharString index="212">
            -67.99000549316406 -497.00999450683594 rlineto
            return
          </CharString>
          <CharString index="213">
            99 rlineto
            -39.02000427246094 return
          </CharString>
          <CharString index="214">
            141.99000549316406 return
          </CharString>
          <CharString index="215">
            -115.02000427246094 return
          </CharString>
          <CharString index="216">
            194.99000549316406 return
          </CharString>
          <CharString index="217">
            -42.99000549316406 return
          </CharString>
          <CharString index="218">
            397 286 141 362.99000549316406 -6 hvcurveto
            -3 172.02000427246094 -130 35 callsubr
            -163 207 callgsubr
            rrcurveto
            return
          </CharString>
          <CharString index="219">
            146 callgsubr
            -64 callgsubr
            return
          </CharString>
          <CharString index="220">
            373 -940.0099945068359 rlineto
            endchar
          </CharString>
          <CharString index="221">
            vhcurveto
            -51 106 callsubr
            return
          </CharString>
          <CharString index="222">
            -84.00999450683594 return
          </CharString>
          <CharString index="223">
            -59.99000549316406 return
          </CharString>
          <CharString index="224">
            178 157.99000549316406 86 182 167 -108 98.02000427246094 -168 -161 -186 203 callgsubr
            -185 return
          </CharString>
          <CharString index="225">
            vstem
            300.99000549316406 1687 rmoveto
            -77 -721.0200042724609 rlineto
            140 hlineto
            164 721.0200042724609 rlineto
            -227 hlineto
            return
          </CharString>
          <CharString index="226">
            1343 1530 rmoveto
            -947.0200042724609 -60 callsubr
            159 hlineto
            947 -5 callsubr
            -10 callgsubr
            hlineto
            return
          </CharString>
          <CharString index="227">
            18 -65 117 callgsubr
            16 -71 hhcurveto
            return
          </CharString>
          <CharString index="228">
            -94 callsubr
            53 -55 return
          </CharString>
          <CharString index="229">
            -4.0200042724609375 return
          </CharString>
          <CharString index="230">
            -30.990005493164062 return
          </CharString>
          <CharString index="231">
            -173.02000427246094 return
          </CharString>
          <CharString index="232">
            86 687 rlineto
            12 58 76 callsubr
            9 53 hhcurveto
            200 145 callsubr
            -91 -168 -94 callsubr
            hvcurveto
            return
          </CharString>
          <CharString index="233">
            -256 -185.99000549316406 1965.990005493164 hstem
            353.99000549316406 172.99000549316406 vstem
            354 1780 rmoveto
            return
          </CharString>
          <CharString index="234">
            99 callsubr
            53 -40 callsubr
            return
          </CharString>
          <CharString index="235">
            176 callsubr
            526.9900054931641 581 -7.9900054931640625 rlineto
            -1303.979995727539 -806.0099945068359 rmoveto
            return
          </CharString>
          <CharString index="236">
            37 171 209.99000549316406 47 105 rlinecurve
            -145.02000427246094 118 -246.99000549316406 172 callgsubr
            rlineto
            return
          </CharString>
          <CharString index="237">
            73.99000549316406 return
          </CharString>
          <CharString index="238">
            -233.99000549316406 return
          </CharString>
          <CharString index="239">
            123.99000549316406 return
          </CharString>
          <CharString index="240">
            113.00999450683594 return
          </CharString>
          <CharString index="241">
            190.99000549316406 return
          </CharString>
          <CharString index="242">
            -427 -313 return
          </CharString>
          <CharString index="243">
            1285 rmoveto
            92 callgsubr
            -252 255 callgsubr
            return
          </CharString>
          <CharString index="244">
            193 callsubr
            27 callsubr
            return
          </CharString>
          <CharString index="245">
            -239 -174 -213 -212 -176 95.00999450683594 -133.97999572753906 61 callsubr
            252 return
          </CharString>
          <CharString index="246">
            -132 -50 callgsubr
            -36 -47 callsubr
            65 rcurveline
            143 callgsubr
            rlineto
            return
          </CharString>
          <CharString index="247">
            689.9900054931641 rmoveto
            110 callgsubr
            -160 586.0200042724609 -378 70 112 -414 351 return
          </CharString>
          <CharString index="248">
            -61 callgsubr
            153.00999450683594 -61 callgsubr
            return
          </CharString>
          <CharString index="249">
            111 rlinecurve
            45 callsubr
            rlineto
            return
          </CharString>
          <CharString index="250">
            35 callgsubr
            rmoveto
            return
          </CharString>
          <CharString index="251">
            1595.990005493164 rmoveto
            return
          </CharString>
          <CharString index="252">
            90.99000549316406 return
          </CharString>
          <CharString index="253">
            106.99000549316406 return
          </CharString>
          <CharString index="254">
            -132.02000427246094 return
          </CharString>
          <CharString index="255">
            -61.99000549316406 return
          </CharString>
          <CharString index="256">
            1008.9900054931641 return
          </CharString>
          <CharString index="257">
            1547.979995727539 rmoveto
            -4 -149 38 callsubr
            149 rlineto
            271 callsubr
            hlineto
            return
          </CharString>
          <CharString index="258">
            -151 rlineto
            -16 22 -47 callsubr
            -12 53 hhcurveto
            148 130 -37 callsubr
            226 hvcurveto
            return
          </CharString>
          <CharString index="259">
            480.99000549316406 27 rmoveto
            -146.99000549316406 -87 -32 -101.99000549316406 -88 -65 66 80 136 return
          </CharString>
          <CharString index="260">
            43 199 callgsubr
            hintmask 10111000
            return
          </CharString>
          <CharString index="261">
            18 -65 -91.02000427246094 16 173 callsubr
            hhcurveto
            return
          </CharString>
          <CharString index="262">
            1 108 callgsubr
            78 callgsubr
            24 -18 rrcurveto
            return
          </CharString>
          <CharString index="263">
            -206.99000549316406 return
          </CharString>
          <CharString index="264">
            217.99000549316406 return
          </CharString>
          <CharString index="265">
            -186.99000549316406 return
          </CharString>
          <CharString index="266">
            -148.99000549316406 return
          </CharString>
          <CharString index="267">
            -189.99000549316406 134.97999572753906 1655.990005493164 134 -46.989990234375 43 hstemhm
            return
          </CharString>
          <CharString index="268">
            1297.979995727539 921.9900054931641 rmoveto
            -13 callsubr
            return
          </CharString>
          <CharString index="269">
            -102.00999450683594 -759.0099945068359 rlineto
            185 hlineto
            135 988 -69 21.009994506835938 return
          </CharString>
          <CharString index="270">
            300 0 43 650.9799957275391 204 callsubr
            645.0599975585938 -102 callgsubr
            return
          </CharString>
          <CharString index="271">
            261 callsubr
            -76 22 vhcurveto
            return
          </CharString>
          <CharString index="272">
            132.00999450683594 43 return
          </CharString>
          <CharString index="273">
            hvcurveto
            -50 callsubr
            return
          </CharString>
          <CharString index="274">
            125 callgsubr
            -45 -79.02000427246094 149 callgsubr
            hvcurveto
            46 -111.97999572753906 return
          </CharString>
          <CharString index="275">
            36 169 132 -50 callsubr
            111 rlinecurve
            return
          </CharString>
          <CharString index="276">
            82.97999572753906 1154 return
          </CharString>
          <CharString index="277">
            165.989990234375 263 return
          </CharString>
          <CharString index="278">
            176.99000549316406 return
          </CharString>
          <CharString index="279">
            -149.02000427246094 return
          </CharString>
          <CharString index="280">
            -70.99000549316406 return
          </CharString>
          <CharString index="281">
            59.99000549316406 return
          </CharString>
          <CharString index="282">
            509.5 return
          </CharString>
          <CharString index="283">
            66.99000549316406 return
          </CharString>
          <CharString index="284">
            42.99000549316406 return
          </CharString>
          <CharString index="285">
            1624.990005493164 rmoveto
            94 -65 84 37 216 169 51 116 rlinecurve
            -133 118 return
          </CharString>
          <CharString index="286">
            -50 callgsubr
            -47 callgsubr
            81.99000549316406 -76 160 callgsubr
            vhcurveto
            return
          </CharString>
          <CharString index="287">
            16.020004272460938 443 131.99000549316406 333 vvcurveto
            141 -89 109 -192 return
          </CharString>
          <CharString index="288">
            -61 -6 -48 callgsubr
            rlinecurve
            -5 -162 -183 -50 -133 88 callgsubr
            return
          </CharString>
          <CharString index="289">
            87.02000427246094 -313.02000427246094 -235 156 callgsubr
            235 -87 -88 return
          </CharString>
          <CharString index="290">
            -522.9900054931641 813.9700012207031 hstem
            95 callgsubr
            216.99000549316406 return
          </CharString>
          <CharString index="291">
            -61 callsubr
            rlineto
            return
          </CharString>
          <CharString index="292">
            263 callgsubr
            130 callsubr
            return
          </CharString>
          <CharString index="293">
            -193 -60 callsubr
            198 hlineto
            return
          </CharString>
          <CharString index="294">
            1507.979995727539 rmoveto
            return
          </CharString>
          <CharString index="295">
            212.99000549316406 return
          </CharString>
          <CharString index="296">
            124.99000549316406 return
          </CharString>
          <CharString index="297">
            125.99000549316406 return
          </CharString>
          <CharString index="298">
            272.02000427246094 return
          </CharString>
          <CharString index="299">
            -53 0 43 658.9900054931641 155.99000549316406 519.0099945068359 153 return
          </CharString>
          <CharString index="300">
            22 callgsubr
            1570.020004272461 -102 callgsubr
            return
          </CharString>
          <CharString index="301">
            167.02000427246094 -108.00999450683594 98 -168 -161 -186 -90 -185 return
          </CharString>
          <CharString index="302">
            -36 218 callgsubr
            vvcurveto
            -153 -171.99000549316406 -63 -141 -28 vhcurveto
            return
          </CharString>
          <CharString index="303">
            40 callgsubr
            158 callsubr
            135 callsubr
            -259.99000549316406 return
          </CharString>
          <CharString index="304">
            hstemhm
            0 callsubr
            return
          </CharString>
          <CharString index="305">
            -73 callsubr
            hstemhm
            return
          </CharString>
          <CharString index="306">
            -51 callgsubr
            934.0099945068359 hstem
            return
          </CharString>
          <CharString index="307">
            150 callgsubr
            195 hlineto
            return
          </CharString>
          <CharString index="308">
            -21.020004272460938 return
          </CharString>
          <CharString index="309">
            -146 -1071 rlineto
            return
          </CharString>
          <CharString index="310">
            -3.9900054931640625 return
          </CharString>
          <CharString index="311">
            149.99000549316406 return
          </CharString>
          <CharString index="312">
            -24.990005493164062 return
          </CharString>
          <CharString index="313">
            93.99000549316406 return
          </CharString>
          <CharString index="314">
            926.9799957275391 813.9900054931641 hstem
            188.99000549316406 217 return
          </CharString>
          <CharString index="315">
            hhcurveto
            424 291 415.97999572753906 521 86 callgsubr
            return
          </CharString>
          <CharString index="316">
            -73.00999450683594 66 callsubr
            return
          </CharString>
          <CharString index="317">
            hstemhm
            866.9700012207031 199 return
          </CharString>
          <CharString index="318">
            hlineto
            116 callsubr
            return
          </CharString>
          <CharString index="319">
            rmoveto
            -175 -125.00999450683594 -138 -81.02000427246094 -50 hvcurveto
            return
          </CharString>
          <CharString index="320">
            60 190.02000427246094 260 callgsubr
            return
          </CharString>
          <CharString index="321">
            155.99000549316406 722.0099945068359 return
          </CharString>
          <CharString index="322">
            65.99000549316406 return
          </CharString>
          <CharString index="323">
            52.99000549316406 return
          </CharString>
          <CharString index="324">
            183.99000549316406 return
          </CharString>
          <CharString index="325">
            71.99000549316406 return
          </CharString>
          <CharString index="326">
            rlineto
            176 hlineto
            return
          </CharString>
          <CharString index="327">
            -86 callgsubr
            -94 callsubr
            hvcurveto
            return
          </CharString>
          <CharString index="328">
            40.96000671386719 69 callsubr
            return
          </CharString>
          <CharString index="329">
            681 -18 43 -25 43 1359.979995727539 127.00999450683594 return
          </CharString>
          <CharString index="330">
            693.9799957275391 156.99000549316406 hstem
            157 callsubr
            return
          </CharString>
          <CharString index="331">
            hhcurveto
            188 callsubr
            47 callgsubr
            return
          </CharString>
          <CharString index="332">
            263 -165.9499969482422 32 callsubr
            110 return
          </CharString>
          <CharString index="333">
            86.02000427246094 181.99000549316406 167.02000427246094 return
          </CharString>
          <CharString index="334">
            782.9900054931641 hintmask 00000000
            return
          </CharString>
          <CharString index="335">
            202 callsubr
            -240 return
          </CharString>
          <CharString index="336">
            198.989990234375 149 return
          </CharString>
          <CharString index="337">
            -29 callgsubr
            rrcurveto
            return
          </CharString>
          <CharString index="338">
            -16 callsubr
            vstem
            return
          </CharString>
          <CharString index="339">
            -229.99000549316406 return
          </CharString>
          <CharString index="340">
            73.02000427246094 return
          </CharString>
          <CharString index="341">
            76.99000549316406 return
          </CharString>
          <CharString index="342">
            60.99000549316406 return
          </CharString>
          <CharString index="343">
            274.97999572753906 return
          </CharString>
          <CharString index="344">
            63.02000427246094 return
          </CharString>
          <CharString index="345">
            1140 rlineto
            return
          </CharString>
          <CharString index="346">
            hlineto
            7 159 -542 -33.02000427246094 rlineto
            309 return
          </CharString>
          <CharString index="347">
            -7 callsubr
            113.99000549316406 return
          </CharString>
          <CharString index="348">
            225 hlineto
            141 7 -25.990005493164062 -164 rlineto
            return
          </CharString>
          <CharString index="349">
            -53 63 80 69 70 77 3 vhcurveto
            63 -88 callgsubr
            return
          </CharString>
          <CharString index="350">
            40.96000671386719 210 callsubr
            return
          </CharString>
          <CharString index="351">
            52 callsubr
            hstemhm
            61 callsubr
            198 return
          </CharString>
          <CharString index="352">
            235.989990234375 263 hstemhm
            return
          </CharString>
          <CharString index="353">
            36 callgsubr
            -6 -36 hhcurveto
            return
          </CharString>
          <CharString index="354">
            hlineto
            5 205 callgsubr
            rlineto
            return
          </CharString>
          <CharString index="355">
            -66.00999450683594 return
          </CharString>
          <CharString index="356">
            153 -26 43 hstemhm
            return
          </CharString>
          <CharString index="357">
            151.49000549316406 return
          </CharString>
          <CharString index="358">
            91.00999450683594 return
          </CharString>
          <CharString index="359">
            -222.99000549316406 return
          </CharString>
          <CharString index="360">
            77 -77 313 return
          </CharString>
          <CharString index="361">
            -18 64 callsubr
            45 201 callsubr
            return
          </CharString>
          <CharString index="362">
            -103 -140 -35 rlinecurve
            6 -123 261 52 rlineto
            return
          </CharString>
          <CharString index="363">
            rmoveto
            -10 callgsubr
            return
          </CharString>
          <CharString index="364">
            1925 rmoveto
            return
          </CharString>
          <CharString index="365">
            -6.9900054931640625 vhcurveto
            175.99000549316406 return
          </CharString>
          <CharString index="366">
            43 1335.509994506836 250 callsubr
            return
          </CharString>
          <CharString index="367">
            hstemhm
            1092.990005493164 159 callgsubr
            return
          </CharString>
          <CharString index="368">
            -50 callgsubr
            -32 82 return
          </CharString>
          <CharString index="369">
            -82 123 callsubr
            -23 return
          </CharString>
          <CharString index="370">
            148 callsubr
            -74 hhcurveto
            return
          </CharString>
          <CharString index="371">
            -122 -69 -35 vhcurveto
            return
          </CharString>
          <CharString index="372">
            83.00999450683594 return
          </CharString>
          <CharString index="373">
            416.99000549316406 return
          </CharString>
          <CharString index="374">
            -355.99000549316406 return
          </CharString>
          <CharString index="375">
            177.99000549316406 return
          </CharString>
          <CharString index="376">
            -117.99000549316406 return
          </CharString>
          <CharString index="377">
            -119.00999450683594 return
          </CharString>
          <CharString index="378">
            -510.02000427246094 return
          </CharString>
          <CharString index="379">
            -19.009994506835938 -111 -22 -93 vhcurveto
            return
          </CharString>
          <CharString index="380">
            11 -1 11 -1 230 callsubr
            return
          </CharString>
          <CharString index="381">
            -95 callsubr
            -11 callgsubr
            return
          </CharString>
          <CharString index="382">
            313 273 return
          </CharString>
        <CharString name=".notdef">
          762 0 218.99000549316406 973.989990234375 223 hstem
          227.97999572753906 229 960.010009765625 227 vstem
          227.97999572753906 1415.990005493164 rmoveto
          -1415.990005493164 1416.009994506836 1415.990005493164 -1416.009994506836 vlineto
          358.00999450683594 -1197 rmoveto
          -128 144 357.99000549316406 342 -358.99000549316406 363.00999450683594 123 189 callsubr
          356.99000549316406 -367.99000549316406 352.00999450683594 366 128 -124 -363.00999450683594 -357.99000549316406 363.00999450683594 -368 -122 -122 -362 368 -347 -368 rlineto
          endchar
        </CharString>
        <CharString name="A">
          -75 callsubr
          hstemhm
          -76 1251 hintmask 11011000
          977 hmoveto
          198 hlineto
          -286 -5 callsubr
          -219.02000427246094 hlineto
          -745.9799957275391 -60 callsubr
          210.97999572753906 hlineto
          182 395.97999572753906 rlineto
          594 hlineto
          66 -395.97999572753906 rlineto
          -590 546.9700012207031 rmoveto
          hintmask 11101000
          369.99000549316406 805.0099945068359 13 -116 115 -689.0099945068359 rlineto
          hintmask 11011000
          80 callsubr
        </CharString>
        <CharString name="AE">
          80 callgsubr
          hstemhm
          -128 1822.979995727539 hintmask 11110010
          1687.979995727539 1373 rmoveto
          7 157 rlineto
          -1331 hlineto
          hintmask 11100110
          -15 callsubr
          hintmask 11110010
          128 callsubr
          hintmask 11101010
          436 826 76 callsubr
          -6 -103 -820 rlineto
          hintmask 11110010
          -422.99000549316406 hlineto
          endchar
        </CharString>
        <CharString name="AEacute">
          80 callgsubr
          64 callgsubr
          hstemhm
          -128 1822.979995727539 hintmask 11110011
          1385.979995727539 100 callgsubr
          -123.99000549316406 84 callsubr
          144 callgsubr
          96.02000427246094 168 callsubr
          302 -499 rmoveto
          7 157 rlineto
          -1331 hlineto
          hintmask 11100111
          -15 callsubr
          hintmask 11110011
          128 callsubr
          hintmask 11101011
          436 826 76 callsubr
          -6 -103 -820 rlineto
          hintmask 11110011
          -422.99000549316406 hlineto
          endchar
        </CharString>
        <CharString name="Aacute">
          -75 callsubr
          64 callgsubr
          hstemhm
          -76 1251 hintmask 11011100
          73 callsubr
          -171.99000549316406 -1871.990005493164 -96 callgsubr
          hintmask 11011100
          80 callsubr
        </CharString>
        <CharString name="Abreve">
          -75 callsubr
          99 -11 callgsubr
          hstemhm
          504.99000549316406 140 hintmask 11011100
          803.9799957275391 1629 rmoveto
          46 callsubr
          160 callgsubr
          hvcurveto
          60 callgsubr
          11 1 11 11 vvcurveto
          -131.99000549316406 36 callsubr
          -10 callgsubr
          79 callgsubr
          -173 216 vhcurveto
          173.02000427246094 -1629 -96 callgsubr
          hintmask 11011100
          80 callsubr
        </CharString>
        <CharString name="Acircumflex">
          -75 callsubr
          165 callsubr
          hstemhm
          -76 1251 hintmask 11011100
          850.9799957275391 112 callgsubr
          126.02000427246094 -1827.979995727539 -96 callgsubr
          hintmask 11011100
          80 callsubr
        </CharString>
        <CharString name="Adieresis">
          -75 callsubr
          170 callsubr
          hstemhm
          477.97999572753906 63 callgsubr
          hintmask 11011110
          590.9900054931641 1695.990005493164 rmoveto
          78 187 callgsubr
          63 60 callgsubr
          -46.99000549316406 53 -77 79 callsubr
          -6 callgsubr
          53 -76 hhcurveto
          -64 -82 -86 callgsubr
          -66 52 -53 63 hvcurveto
          -33 -1695.990005493164 -96 callgsubr
          hintmask 11011110
          80 callsubr
        </CharString>
        <CharString name="Agrave">
          -75 callsubr
          64 callgsubr
          hstemhm
          -76 1251 hintmask 11011100
          817.9900054931641 1593 rmoveto
          -47 callsubr
          65 143 callgsubr
          62 211 callgsubr
          -50 callgsubr
          -36 rlinecurve
          159 -1593 -96 callgsubr
          hintmask 11011100
          80 callsubr
        </CharString>
        <CharString name="Amacron">
          -75 callsubr
          229 callsubr
          hstemhm
          523.9799957275391 175 callsubr
          hintmask 00000000
          hintmask 11011100
          1035.979995727539 1878 rmoveto
          -510 hlineto
          94 callgsubr
          -58.99000549316406 -1878 -96 callgsubr
          hintmask 11011100
          80 callsubr
        </CharString>
        <CharString name="Aogonek">
          155 22 callsubr
          287 -72 callsubr
          hstemhm
          734.9799957275391 194 hintmask 11101100
          991.9900054931641 -287 rmoveto
          -23 -40 11 55 91 callgsubr
          hvcurveto
          39.02000427246094 hlineto
          -286 -5 callsubr
          -219.02000427246094 hlineto
          -745.9799957275391 -60 callsubr
          210.97999572753906 hlineto
          182 395.97999572753906 rlineto
          594 hlineto
          66 -395.97999572753906 rlineto
          -88 callgsubr
          hlineto
          -77 -47 -168 13 callsubr
          -56.02000427246094 246 callsubr
          -605 833.9799957275391 rmoveto
          hintmask 11110100
          369.99000549316406 805.0099945068359 13 -116 115 -689.0099945068359 rlineto
          hintmask 11101100
          80 callsubr
        </CharString>
        <CharString name="Aring">
          155 0 43 352.97999572753906 52 callsubr
          1345.009994506836 108.00999450683594 hstem
          493.99000549316406 173 callgsubr
          342.00999450683594 142 vstem
          977 hmoveto
          198 hlineto
          -277.00999450683594 1480.990005493164 rlineto
          125.00999450683594 30 94 76 callgsubr
          140 vvcurveto
          194 callsubr
          -119 -48 callsubr
          -81.99000549316406 100 -36 vhcurveto
          -724.9900054931641 -1487.990005493164 rlineto
          210.97999572753906 hlineto
          182 395.97999572753906 rlineto
          594 hlineto
          66 -395.97999572753906 rlineto
          -152 1891.979995727539 rmoveto
          247 callgsubr
          -146.99000549316406 -87 -32 -102.00999450683594 -87.99000549316406 -65 66 208 callgsubr
          hvcurveto
          -438 -1345 rmoveto
          369.99000549316406 805.0099945068359 13 -116 115 -689.0099945068359 rlineto
          80 callsubr
        </CharString>
        <CharString name="Atilde">
          -75 callsubr
          138 -66 callgsubr
          hstemhm
          -76 1288.990005493164 hintmask 11011010
          653.9900054931641 1807.990005493164 rmoveto
          240 callsubr
          120.02000427246094 188 callgsubr
          34 hvcurveto
          116 callgsubr
          89 rlineto
          -48 -38 -47 callgsubr
          148 callsubr
          -74.02000427246094 hhcurveto
          hintmask 11010110
          -92 -47 callgsubr
          140 -153 hhcurveto
          -104 -130 -83 -86 110 callsubr
          hvcurveto
          87 115 callsubr
          rlineto
          hintmask 11011010
          59 callsubr
          175 callgsubr
          34 52 65 -1 rrcurveto
          16 -278 rmoveto
          -745.9799957275391 -60 callsubr
          210.97999572753906 hlineto
          182 395.97999572753906 rlineto
          594 hlineto
          66 -395.97999572753906 rlineto
          198 hlineto
          -286 -5 callsubr
          -219.02000427246094 hlineto
          -282.99000549316406 -983.0200042724609 rmoveto
          hintmask 11101010
          369.99000549316406 805.0099945068359 13 -116 115 -689.0099945068359 rlineto
          hintmask 11011010
          80 callsubr
        </CharString>
        <CharString name="B">
          130 -14 141 -127 43 679.9799957275391 140 545.0200042724609 176 callgsubr
          198 callsubr
          922.9900054931641 211 -190.010009765625 198 hintmask 10110100
          837.9799957275391 802 rmoveto
          hintmask 10110010
          90 callgsubr
          hintmask 01101100
          -107 -97 -16 -98.02000427246094 hhcurveto
          -87 41 callgsubr
          92 hlineto
          71 146 callsubr
          -14 77 hhcurveto
          hintmask 10110100
          111 callsubr
          hintmask 10110010
          2 callsubr
          hintmask 10110100
          5 callgsubr
        </CharString>
        <CharString name="C">
          15 callsubr
          hstem
          146 callsubr
          -36 callgsubr
          vstem
          816.9900054931641 1545.990005493164 -102 callsubr
        </CharString>
        <CharString name="CR">
          -1110 endchar
        </CharString>
        <CharString name="Cacute">
          15 callsubr
          112.02000427246094 43 hstem
          146 callsubr
          -36 callgsubr
          vstem
          761 -19 callsubr
          62 111 rlinecurve
          264 callgsubr
          -275.97999572753906 -342 rlineto
          73 callgsubr
          -112 -102 callsubr
        </CharString>
        <CharString name="Ccaron">
          15 callsubr
          hstem
          146 callsubr
          -36 callgsubr
          vstem
          472.99000549316406 257 callsubr
          170 callgsubr
          -81 callgsubr
          rlineto
          344 -379 -102 callsubr
        </CharString>
        <CharString name="Ccedilla">
          31 -462 165 285 153.99000549316406 1237.989990234375 166 hstem
          146 callsubr
          -36 callgsubr
          251.99998474121094 171 vstem
          809.9799957275391 1379.979995727539 rmoveto
          163 68.02000427246094 -6 callgsubr
          -17.020004272460938 30.990005493164062 hvcurveto
          70 164 40 callsubr
          18 rlineto
          24 123 callgsubr
          -71.99000549316406 25 -130 hhcurveto
          -406 -314 -371 -548 10 hvcurveto
          5 -296 133 callsubr
          -317.00999450683594 336 -27.990005493164062 rrcurveto
          1 -34 -1 -40 -29 vvcurveto
          159 callsubr
          -77 267 callgsubr
          262 callsubr
          5 -52 callgsubr
          -17 vhcurveto
          -25 -151 rlineto
          204 callgsubr
          22 -37 callsubr
          -12 216 callsubr
          hhcurveto
          148 130 -37 callsubr
          226 61 270 callgsubr
          51 -14 39 hvcurveto
          197.02000427246094 13.990005493164062 206 callsubr
          56 34.02000427246094 64 callsubr
          -30 166 rcurveline
          -32 -39 -140.99000549316406 -76 -179.02000427246094 hhcurveto
          -228.99000549316406 -103 224 281.99000549316406 -5.0200042724609375 hvcurveto
          286 -5 118.00999450683594 445.99000549316406 387.99000549316406 hhcurveto
          endchar
        </CharString>
        <CharString name="Ccircumflex">
          15 callsubr
          116.02000427246094 43 hstem
          146 callsubr
          -36 callgsubr
          vstem
          472.99000549316406 -46 callsubr
          94 68 -190 344 rlineto
          -178 hlineto
          -327 -344 rlineto
          344 -116 -102 callsubr
        </CharString>
        <CharString name="Cdotaccent">
          15 callsubr
          150 -20 callsubr
          146 callsubr
          -36 callgsubr
          388.00999450683594 75 callsubr
          hintmask 11011100
          697 -69 callgsubr
          hintmask 11101100
          86 callsubr
          hintmask 11011100
          -65 -75 220 callsubr
          133 callgsubr
          -269 -102 callsubr
        </CharString>
        <CharString name="D">
          267 -34 callgsubr
          43 1356.990005493164 -35 callgsubr
          hintmask 10101000
          161 callsubr
          hintmask 01011000
          -86 callsubr
          hintmask 10101000
          31 -3 54 -2.9900054931640625 28 -1 470 -12 316.00999450683594 420.99000549316406 -10.020004272460938 529 rrcurveto
          -733.9900054931641 -788 -98 callsubr
          endchar
        </CharString>
        <CharString name="Dcaron">
          267 -34 callgsubr
          43 1356.990005493164 -35 callgsubr
          hintmask 10101000
          876.9900054931641 265 callgsubr
          rmoveto
          -81 callgsubr
          170 callgsubr
          420.99000549316406 -705 rmoveto
          -13 callsubr
          hintmask 01011000
          -86 callsubr
          hintmask 10101000
          31 -3 54 -2.9900054931640625 28 -1 470 -12 316.00999450683594 420.99000549316406 -10.020004272460938 529 rrcurveto
          -733.9900054931641 -788 -98 callsubr
          endchar
        </CharString>
        <CharString name="Dcroat">
          -89 callgsubr
        </CharString>
        <CharString name="E">
          28 0 -67 callgsubr
          hstem
          110 960 vstem
          302.97999572753906 1530 -101 callgsubr
        </CharString>
        <CharString name="Eacute">
          28 0 -67 callgsubr
          64 callgsubr
          hstem
          110 960 vstem
          657 1658 rmoveto
          31 callsubr
          168.97999572753906 132 62.02000427246094 142 callsubr
          -354.02000427246094 -128 -101 callgsubr
        </CharString>
        <CharString name="Ebreve">
          28 0 -67 callgsubr
          99 231 callgsubr
          412.99000549316406 139.97999572753906 vstem
          413 1960.979995727539 258 callgsubr
          104 callsubr
          1 11 11 vvcurveto
          -132 152 callgsubr
          -15.009994506835938 hvcurveto
          53 callgsubr
          273 callsubr
          -135 hlineto
          88 callgsubr
          -6 0 -7 -6 vvcurveto
          -110.02000427246094 -430.99000549316406 -101 callgsubr
        </CharString>
        <CharString name="Ecaron">
          28 0 -67 callgsubr
          hstem
          110 992.9900054931641 vstem
          368.99000549316406 257 callsubr
          170 callgsubr
          -81 callgsubr
          rlineto
          -66 -395 -101 callgsubr
        </CharString>
        <CharString name="Ecircumflex">
          28 0 -67 callgsubr
          262 callgsubr
          110 960 vstem
          368.99000549316406 -46 callsubr
          94 68 234 callgsubr
          344 10 callgsubr
          -344 rlineto
          -66 -132 -101 callgsubr
        </CharString>
        <CharString name="Edieresis">
          28 0 -67 callgsubr
          170 callsubr
          hstemhm
          385.97999572753906 265.00999450683594 151.98001098632812 266 callgsubr
          hintmask 00000000
          hintmask 11111100
          385.99000549316406 49 callsubr
          -3 hvcurveto
          266 callsubr
          hmoveto
          -66 52.02000427246094 242 callsubr
          -48 53 -76 hhcurveto
          -64 -82 -86 callgsubr
          hvcurveto
          -500 -285 -101 callgsubr
        </CharString>
        <CharString name="Edotaccent">
          28 0 -67 callgsubr
          -8 callsubr
          110 960 -477.00999450683594 75 callsubr
          hintmask 00000000
          hintmask 11101010
          593 132 callgsubr
          -3 53 -55 63 hhcurveto
          78 71 70 77 -88 callgsubr
          hvcurveto
          hintmask 11110010
          86 callsubr
          hintmask 11101010
          -65 -75 220 callsubr
          hintmask 11101100
          -290.02000427246094 -285 -101 callgsubr
        </CharString>
        <CharString name="Egrave">
          28 0 -67 callgsubr
          64 callgsubr
          hstem
          110 960 vstem
          398.99000549316406 100 callgsubr
          -50 callsubr
          -111 169 139 callsubr
          65 callgsubr
          -342 -101 callgsubr
        </CharString>
        <CharString name="Emacron">
          28 0 -67 callgsubr
          229 callsubr
          hstemhm
          431.97999572753906 175 callsubr
          hintmask 00000000
          hintmask 11111000
          433.99000549316406 1878 rmoveto
          94 callgsubr
          165 callgsubr
          -131 -348 -101 callgsubr
        </CharString>
        <CharString name="Eng">
          406 179 callgsubr
          1231.990005493164 hintmask 10110000
          1153.990005493164 1530 rmoveto
          -123 -1020 -18.990005493164062 -249 -63.02000427246094 206.99000549316406 -440 1062.009994506836 rlineto
          -206 41 callgsubr
          185 hlineto
          126 149 callsubr
          rlineto
          hintmask 11010000
          27.020004272460938 298 52.97999572753906 -232 445.00999450683594 -1051.020004272461 -46 250 callgsubr
          -102.00999450683594 -99.99000549316406 -133 -43 rlinecurve
          35 -88 201 34 161 87 83 194 rlinecurve
          3.9900054931640625 hlineto
          115 callgsubr
          hintmask 10110000
          -188 hlineto
          endchar
        </CharString>
        <CharString name="Eogonek">
          28 22 callsubr
          287 -67 callgsubr
          hstem
          560.9799957275391 194 vstem
          1062.990005493164 1373 rmoveto
          7 157 rlineto
          -767.0200042724609 41 callgsubr
          696 hlineto
          -77 -47 -168 25 callsubr
          137 44 callsubr
          -56 -37.99000549316406 185 callsubr
          131.99000549316406 93 75 54 hvcurveto
          50 hlineto
          13.990005493164062 -42 callsubr
          -700 -16 72 560.9900054931641 443 -15 12 166 -438 -7 67.00999450683594 526.9900054931641 581 -7.9900054931640625 rlineto
          endchar
        </CharString>
        <CharString name="Eth">
          -89 callgsubr
        </CharString>
        <CharString name="Euro">
          279 274 callsubr
          422.99000549316406 141 199.010009765625 140 363.989990234375 148 hstem
          227.97999572753906 208.00999450683594 vstem
          930 1545.990005493164 rmoveto
          -299.00999450683594 -241.99000549316406 -194 -318 -106 hvcurveto
          -193 hlineto
          -20 -140 219 callsubr
          -12 -63 -7 248 callsubr
          53 callgsubr
          -70 rrcurveto
          -180 hlineto
          -20 -141 rlineto
          203 hlineto
          -286.97999572753906 23 135 -282.97999572753906 307 hhcurveto
          206 171.99000549316406 46.97999572753906 80 71 hvcurveto
          -56 136 rlineto
          148 callsubr
          -89 -48 callgsubr
          -54 -179.02000427246094 hhcurveto
          -192.99000549316406 -81 168 255 -12 hvcurveto
          527 hlineto
          19 141 rlineto
          -546 hlineto
          -88 callgsubr
          71 6 66.00999450683594 10 -50 callsubr
          rrcurveto
          553 hlineto
          19.009994506835938 140 rlineto
          -542 hlineto
          148 callgsubr
          66 78 callsubr
          134 195 hhcurveto
          169 48 callgsubr
          72 callsubr
          -28.020004272460938 27.020004272460938 hvcurveto
          64 159 rlineto
          23 -72.00999450683594 -86 31 -156 hhcurveto
          endchar
        </CharString>
        <CharString name="F">
          192 callsubr
          hstem
          110 982.9900054931641 vstem
          302.97999572753906 1530 6 callgsubr
        </CharString>
        <CharString name="G">
          -73 callgsubr
          hstem
          24 callgsubr
          vstem
          781.9900054931641 570 -107 callgsubr
          endchar
        </CharString>
        <CharString name="Gbreve">
          -73 callgsubr
          83.010009765625 231 callgsubr
          24 callgsubr
          238.99998474121094 140 vstem
          847.9900054931641 1629 rmoveto
          46 callsubr
          22 hvcurveto
          2 11 0.9799957275390625 11 11 vvcurveto
          -131.99000549316406 67 callgsubr
          -146.99000549316406 hhcurveto
          -126.00999450683594 205 callsubr
          104 89 callgsubr
          78 callgsubr
          hvcurveto
          -2 11 88 callgsubr
          11 -1 184 callgsubr
          -173 216 vhcurveto
          -66 -1059 -107 callgsubr
          endchar
        </CharString>
        <CharString name="Gcaron">
          -73 callgsubr
          hstem
          24 callgsubr
          vstem
          924 265 callgsubr
          rmoveto
          315 298.99000549316406 -82 182 callsubr
          170 callgsubr
          -142 -1057 -107 callgsubr
          endchar
        </CharString>
        <CharString name="Gcircumflex">
          -73 callgsubr
          116.02000427246094 43 hstem
          24 callgsubr
          vstem
          895 1827.979995727539 rmoveto
          210.99000549316406 201 callgsubr
          -189.99000549316406 344 10 callgsubr
          -344 234 callsubr
          -77 313.02000427246094 243 rlineto
          88 callsubr
          -1257.990005493164 -107 callgsubr
          endchar
        </CharString>
        <CharString name="Gcommaaccent">
          230 -39 callgsubr
          450.989990234375 -57 callgsubr
          430.99000549316406 158.99000549316406 656.9999847412109 160 259 callgsubr
          277.00999450683594 134 callsubr
          hintmask 01111110
          781.9900054931641 570 -107 callgsubr
          -112 -640 rmoveto
          159 callsubr
          -101 -6 40 callsubr
          rlineto
          68 callsubr
          -29 callsubr
          -34 callsubr
          hintmask 10111110
          -58 callsubr
          hintmask 01111110
          164 callsubr
          endchar
        </CharString>
        <CharString name="Gdotaccent">
          -73 callgsubr
          150 263 -262.989990234375 43 259 callgsubr
          418.99998474121094 265.00999450683594 hintmask 11101110
          181 callgsubr
          hintmask 11110110
          6 callsubr
          -3 hvcurveto
          hintmask 11101110
          23 callgsubr
          -60 -1125.990005493164 -107 callgsubr
          endchar
        </CharString>
        <CharString name="Gtilde">
          -73 callgsubr
          122.010009765625 -66 callgsubr
          259 callgsubr
          hintmask 11110100
          698 1807.990005493164 rmoveto
          -2 110.99000549316406 17.020004272460938 -138 163 hhcurveto
          114 133 callgsubr
          188 callgsubr
          34 hvcurveto
          -85 89 rlineto
          -48 36 callgsubr
          -32 263 callsubr
          hintmask 11101100
          5 callsubr
          -83 -86 -43 hvcurveto
          87 115 callsubr
          rlineto
          hintmask 11110100
          38 175 callgsubr
          34 52 65 -1 rrcurveto
          144 -422.00999450683594 rmoveto
          176 116.99000549316406 -49.99000549316406 -36 47 hvcurveto
          62.02000427246094 179 -38 11 rlineto
          21.009994506835938 -64 -112.99000549316406 35 -184.02000427246094 hhcurveto
          -418 -328.00999450683594 -371 -548 10.020004272460938 hvcurveto
          -310.00999450683594 5 140 -332.97999572753906 354 hhcurveto
          160.02000427246094 140.97999572753906 46.97999572753906 30 101.00999450683594 hvcurveto
          54 16 43.99000549316406 13 39 4 82 635 rcurveline
          -426.99000549316406 87 callgsubr
          -10 callgsubr
          rlineto
          232 hlineto
          -45 -357 rlineto
          -50.02000427246094 -111 -124.99000549316406 -23.979995727539062 -89 hhcurveto
          -250 -80 262 246.99000549316406 -4.0099945068359375 hvcurveto
          306.00999450683594 -5 143.02000427246094 431.99000549316406 393.99000549316406 hhcurveto
          endchar
        </CharString>
        <CharString name="H">
          163 callsubr
          hstem
          110 1241.979995727539 vstem
          1153.990005493164 1530 10 callsubr
        </CharString>
        <CharString name="Hbar">
          300 0 43 548.9900054931641 204 callsubr
          256.00999450683594 204 callsubr
          -149.99000549316406 532 hstemhm
          51.99000549316406 1462.979995727539 hintmask 11101000
          1514.990005493164 1147.990005493164 rmoveto
          -211 hlineto
          hintmask 11011000
          48 382.00999450683594 219 callgsubr
          hintmask 11101000
          -48 -382.00999450683594 rlineto
          -652.9900054931641 hlineto
          hintmask 11011000
          47.99000549316406 382.00999450683594 219 callgsubr
          hintmask 11101000
          -6 callgsubr
          -382.00999450683594 rlineto
          -189 hlineto
          -13.990005493164062 -150 rlineto
          184 hlineto
          -126 -997.9900054931641 rlineto
          198 hlineto
          75 591.9900054931641 rlineto
          652.9900054931641 hlineto
          -75 -591.9900054931641 rlineto
          198 hlineto
          126.02000427246094 997.9900054931641 rlineto
          216 hlineto
          13.990005493164062 150 rlineto
          -460 -406 rmoveto
          -653 hlineto
          32 256 rlineto
          653 hlineto
          -32 -256 rlineto
          endchar
        </CharString>
        <CharString name="Hcircumflex">
          163 callsubr
          262 callgsubr
          110 1241.979995727539 vstem
          890.9799957275391 112 callgsubr
          263 -297.97999572753906 10 callsubr
        </CharString>
        <CharString name="I">
          -7 callgsubr
          hstem
          127 390.97999572753906 vstem
          320 1530 -89 callsubr
          endchar
        </CharString>
        <CharString name="I.uc">
          -59 callsubr
        </CharString>
        <CharString name="IJ">
          52 168 callgsubr
          127 969.9900054931641 vstem
          320 1530 -46 callgsubr
        </CharString>
        <CharString name="IJ_acutecomb">
          52 -70 callsubr
          126.00999450683594 43 -41 43 hstemhm
          127 1240 hintmask 11011000
          387.99000549316406 -19 callsubr
          -50 callsubr
          142 callsubr
          hintmask 11101000
          578.9900054931641 -2 63 callsubr
          62 45 callgsubr
          -646.9799957275391 -126 -46 callgsubr
        </CharString>
        <CharString name="Iacute">
          -7 callgsubr
          64 callgsubr
          hstem
          127 660.9900054931641 vstem
          387.99000549316406 -19 callsubr
          -50 callsubr
          142 callsubr
          -67.99000549316406 -128 -89 callsubr
          endchar
        </CharString>
        <CharString name="Ibreve">
          -7 callgsubr
          99 231 callgsubr
          143.99000549316406 140 vstem
          143.99000549316406 1960.979995727539 258 callgsubr
          -173 216 46 callsubr
          160 callgsubr
          vhcurveto
          60 callgsubr
          11 1 11 11 vvcurveto
          -132 36 callsubr
          176 -430.99000549316406 -89 callsubr
          endchar
        </CharString>
        <CharString name="Icircumflex">
          -7 callgsubr
          262 callgsubr
          99.97999572753906 695 vstem
          99.97999572753906 -46 callsubr
          94 68 -190 344 rlineto
          -178 hlineto
          -327 -344 rlineto
          191 callgsubr
          -132 -89 callsubr
          endchar
        </CharString>
        <CharString name="Idieresis">
          -7 callgsubr
          170 callsubr
          hstemhm
          116.97999572753906 63 callgsubr
          hintmask 11111000
          116.97999572753906 1815 rmoveto
          23 callgsubr
          78 187 callgsubr
          86 callsubr
          -65 -75 -86 callgsubr
          -3 hvcurveto
          417.02000427246094 hmoveto
          -66 52 242 callsubr
          -6 callgsubr
          53 -76 hhcurveto
          -64 -82 -86 callgsubr
          hvcurveto
          -214 -285 -89 callsubr
          endchar
        </CharString>
        <CharString name="Idotaccent">
          -59 callsubr
        </CharString>
        <CharString name="Igrave">
          -7 callgsubr
          64 callgsubr
          hstem
          127 402.97999572753906 vstem
          78 callsubr
          100 callgsubr
          62.02000427246094 -111 168.97999572753906 139 callsubr
          190.02000427246094 -342 -89 callsubr
          endchar
        </CharString>
        <CharString name="Imacron">
          -7 callgsubr
          229 callsubr
          hstemhm
          162.97999572753906 175 callsubr
          hintmask 00000000
          hintmask 11110000
          -42 callsubr
          1878 rmoveto
          94 callgsubr
          165 callgsubr
          155.02000427246094 -348 -89 callsubr
          endchar
        </CharString>
        <CharString name="Iogonek">
          -530 22 callsubr
          287 -68 callgsubr
          hstem
          -118 77 callsubr
          vstem
          282.99000549316406 hmoveto
          42 hlineto
          192.99000549316406 -5 callsubr
          -197.97999572753906 hlineto
          -193 -60 callsubr
          -77 -47 -168 56 callgsubr
          56.02000427246094 -91 174 callgsubr
          41 callsubr
          endchar
        </CharString>
        <CharString name="Itilde">
          -7 callgsubr
          138 -66 callgsubr
          hstemhm
          69 227 callsubr
          hintmask 11011000
          69 83 callgsubr
          59 callsubr
          175 callgsubr
          34 52 65 -1 rlinecurve
          hintmask 11101000
          18 callgsubr
          -38 -47 callgsubr
          148 callsubr
          -74.02000427246094 hhcurveto
          hintmask 11011000
          -92 -47 callgsubr
          140 -153 hhcurveto
          -104 -130 -83 -86 110 callsubr
          hvcurveto
          hintmask 11101000
          251 -271 -89 callsubr
          endchar
        </CharString>
        <CharString name="J">
          -528 1489.0299987792969 87 callsubr
          -170 687 vstem
          319 1530 -14 callgsubr
        </CharString>
        <CharString name="Jcircumflex">
          -528 1489.0299987792969 -102 callgsubr
          262 callgsubr
          -170 958.9900054931641 vstem
          93.97999572753906 -46 callsubr
          94 68 -190 344 rlineto
          -178 hlineto
          -327 -344 rlineto
          225.02000427246094 -132 -14 callgsubr
        </CharString>
        <CharString name="K">
          135 168 callgsubr
          110 1196.990005493164 vstem
          -53 callsubr
          endchar
        </CharString>
        <CharString name="Kcommaaccent">
          135 244 callgsubr
          -68 callgsubr
          hstemhm
          544.9900054931641 134 callsubr
          hintmask 01111000
          -53 callsubr
          -64 -914.9799957275391 rmoveto
          -149 -101.00999450683594 -6 -54 rlineto
          40 -6 callsubr
          32 224 callgsubr
          -29 callsubr
          -37 -6 callgsubr
          72 callsubr
          vhcurveto
          -3 157 callgsubr
          rlineto
          hintmask 10111000
          80 -49.99000549316406 rlineto
          -53 callgsubr
          18 104 48 callgsubr
          164 vvcurveto
          hintmask 01111000
          179 callsubr
          endchar
        </CharString>
        <CharString name="L">
          54 callsubr
          hstem
          110 788.9900054931641 vstem
          302.97999572753906 1530 90 callsubr
        </CharString>
        <CharString name="Lacute">
          54 callsubr
          130 43 hstem
          110 788.9900054931641 vstem
          384.97999572753906 1659.990005493164 rmoveto
          58 callsubr
          131.99000549316406 62.02000427246094 45 callgsubr
          -82 -129.99000549316406 90 callsubr
        </CharString>
        <CharString name="Lcaron">
          54 callsubr
          hstem
          821.9799957275391 183 vstem
          780.9799957275391 1070 rmoveto
          51 callsubr
          -4.0099945068359375 76 -23.990005493164062 57 vhcurveto
          57 callgsubr
          272 callsubr
          -478 460 90 callsubr
        </CharString>
        <CharString name="Lcommaaccent">
          -132 244 callgsubr
          216 callgsubr
          1321.5399932861328 32 callsubr
          443.97999572753906 134 callsubr
          hintmask 01111000
          302.97999572753906 1530 -76 callgsubr
          89 callgsubr
          -1753 rmoveto
          40 -6 callsubr
          108 callgsubr
          224 callgsubr
          134 callgsubr
          -37 -48 72 callsubr
          vhcurveto
          -3 157 callgsubr
          rlineto
          hintmask 10111000
          146 callgsubr
          -49.99000549316406 rlineto
          96 callgsubr
          18 104 48 callgsubr
          164 vvcurveto
          179 callsubr
          -149 -101.00999450683594 rlineto
          hintmask 01111000
          -6 -54 rlineto
          endchar
        </CharString>
        <CharString name="Ldot">
          -14 0 216 callgsubr
          583.489990234375 191 callsubr
          466.0299987792969 87 callsubr
          762.9799957275391 276 vstem
          302.97999572753906 1530 -76 callgsubr
          617 -507 rmoveto
          48 callsubr
          97 callgsubr
          -77 -83 -65.99000549316406 54 -46.02000427246094 65 95 62 60 195 callgsubr
        </CharString>
        <CharString name="Lslash">
          54 callsubr
          hstem
          -50.99000549316406 949.9799957275391 vstem
          328.99000549316406 -42 callsubr
          rmoveto
          -50 callsubr
          489 418 176 -35 127 -365 -158 92 731.0099945068359 219 callgsubr
          -104 -821 -249.97999572753906 -108.00999450683594 36 -118.00999450683594 195.97000122070312 265 callsubr
          173 callsubr
          -565.9900054931641 rlineto
          767 hlineto
          22 -23 callgsubr
          -570 -5 rlineto
          endchar
        </CharString>
        <CharString name="M">
          222 callsubr
          hstemhm
          1409.979995727539 194 hintmask 01110000
          427.99000549316406 1530 127 callgsubr
          hintmask 10110000
          103 callsubr
          hintmask 01110000
          42 callgsubr
        </CharString>
        <CharString name="N">
          290 179 callgsubr
          1231.990005493164 hintmask 10110000
          302.97999572753906 1530 -56 callsubr
          hintmask 11010000
          -97 callgsubr
          hintmask 10110000
          -206 hlineto
          endchar
        </CharString>
        <CharString name="NULL">
          -1110 endchar
        </CharString>
        <CharString name="Nacute">
          290 -33 callgsubr
          64 callgsubr
          hstemhm
          110 1231.990005493164 hintmask 10111000
          809.9799957275391 1658 rmoveto
          233 callsubr
          84 callgsubr
          132 62 45 callgsubr
          -507 -128 -56 callsubr
          hintmask 11011000
          -97 callgsubr
          hintmask 10111000
          -206 hlineto
          endchar
        </CharString>
        <CharString name="Ncaron">
          290 179 callgsubr
          1231.990005493164 hintmask 10110000
          521.9900054931641 257 callsubr
          170 callgsubr
          -81 callgsubr
          rlineto
          -219 -395 -56 callsubr
          hintmask 11010000
          -97 callgsubr
          hintmask 10110000
          -206 hlineto
          endchar
        </CharString>
        <CharString name="Ncommaaccent">
          290 -559.9900054931641 43 7.010009765625 43 466.97999572753906 -25 callgsubr
          hstemhm
          567.9900054931641 134 callsubr
          hintmask 01101100
          302.97999572753906 1530 -56 callsubr
          hintmask 01110100
          -97 callgsubr
          hintmask 01101100
          -206 hlineto
          193 -1754.990005493164 rmoveto
          40 -9.009994506835938 32 1 callsubr
          hintmask 10101100
          -58 callsubr
          -50 callgsubr
          -47 callgsubr
          82 -76 22 vhcurveto
          -149 -101 rlineto
          hintmask 01101100
          -6 40 callsubr
          rlineto
          endchar
        </CharString>
        <CharString name="Ntilde">
          290 -33 callgsubr
          138 -66 callgsubr
          hstemhm
          110 1231.990005493164 hintmask 00000000
          hintmask 10101100
          490.99000549316406 83 callgsubr
          38 175 callgsubr
          34 52 65 -1 rlinecurve
          hintmask 10110100
          51 callgsubr
          hintmask 10101100
          162 callgsubr
          hintmask 10110100
          -188 -271 -56 callsubr
          hintmask 11010100
          -97 callgsubr
          hintmask 10110100
          -206 hlineto
          endchar
        </CharString>
        <CharString name="O">
          -80 callgsubr
          -28 callgsubr
          48 callgsubr
          610 -104 callsubr
        </CharString>
        <CharString name="OE">
          996 141 callgsubr
          -67 callgsubr
          -141 156.99000549316406 246 callgsubr
          hintmask 01110100
          2027.990005493164 1373 rmoveto
          7 157 rlineto
          -767 hlineto
          -37 -291 rlineto
          hintmask 10101100
          61 callsubr
          -67.00999450683594 -134.99000549316406 124 -215 120 callgsubr
          -343 6 159.99000549316406 -282.97999572753906 325.02000427246094 hhcurveto
          214 175 105.97999572753906 172 133 callgsubr
          hvcurveto
          hintmask 01110100
          -32.99000549316406 -261.97999572753906 rlineto
          902 hlineto
          13.990005493164062 -42 callsubr
          -699.9900054931641 -16 218 callsubr
          560.9900054931641 443 -15 12 166 -438 -7 67.00999450683594 526.9900054931641 581 -7.9900054931640625 rlineto
          hintmask 10101100
          -1397 -1237.009994506836 rmoveto
          -211 -99 159 353 -6.9900054931640625 hvcurveto
          380 -7 192 361 282.99000549316406 hhcurveto
          211 100 -153 -352.99000549316406 6 hvcurveto
          -74 callgsubr
          endchar
        </CharString>
        <CharString name="Oacute">
          -80 callgsubr
          112.01998901367188 43 -28 callgsubr
          781.9900054931641 37 callsubr
          62 111 rlinecurve
          -123.99000549316406 84 callsubr
          rlineto
          -674 -1048 -104 callsubr
        </CharString>
        <CharString name="Obreve">
          -80 callgsubr
          265 callsubr
          231 callgsubr
          48 callgsubr
          206 223.989990234375 140 421.010009765625 231 callsubr
          537.9900054931641 21 callgsubr
          0.9900054931640625 11 11 vvcurveto
          -132 101 callsubr
          -0.9799957275390625 -20 callgsubr
          -430 -1350.990005493164 -104 callsubr
        </CharString>
        <CharString name="Ocircumflex">
          -80 callgsubr
          116.01998901367188 43 -28 callgsubr
          494 1661.990005493164 rmoveto
          234 callsubr
          -77 313.02000427246094 243 210.99000549316406 201 callgsubr
          -190 344 rlineto
          -178 hlineto
          -326.97999572753906 -344 rlineto
          -386 -1052 -104 callsubr
        </CharString>
        <CharString name="Odieresis">
          -80 callgsubr
          149.99998474121094 263 246 callgsubr
          197 75 callsubr
          151.99998474121094 -61 callgsubr
          -95.97999572753906 -16 callsubr
          hintmask 11111010
          511 -69 callgsubr
          86 callsubr
          -65 -75 220 callsubr
          hintmask 11111100
          266 callsubr
          hmoveto
          -66 52 -53 63 80 89 callgsubr
          70 77 -88 callgsubr
          vhcurveto
          63 3 -48 53 -76 hhcurveto
          -64 -82 -86 callgsubr
          hvcurveto
          -820 -1205 rmoveto
          -343 6 159.99000549316406 -282.97999572753906 325.02000427246094 hhcurveto
          hintmask 11111010
          424 291 415.97999572753906 521 86 callgsubr
          343 -6 -159.99000549316406 282.00999450683594 -325 hhcurveto
          hintmask 11111100
          -71 callsubr
          hintmask 11111010
          991 273 rmoveto
          -74 callgsubr
          -211 -99 159 353 -6.9900054931640625 hvcurveto
          380 -7 192 361 282.99000549316406 hhcurveto
          211 100 -153 -352.99000549316406 6 hvcurveto
          endchar
        </CharString>
        <CharString name="Ograve">
          -80 callgsubr
          112.01998901367188 43 -28 callgsubr
          523.9799957275391 100 callgsubr
          62 211 callgsubr
          34 callsubr
          -36 233 callsubr
          65 rcurveline
          -276.00999450683594 257 callgsubr
          rlineto
          172 callgsubr
          -1262 -104 callsubr
        </CharString>
        <CharString name="Ohungarumlaut">
          -80 callgsubr
          -28 callgsubr
          548.9900054931641 1624.990005493164 rmoveto
          94 -65 84 37 215.99000549316406 169 51.02000427246094 116 rlinecurve
          -133 118 -312.00999450683594 -375 rlineto
          415 hmoveto
          74 -65 103 38 212 167 58 116 rlinecurve
          -135 119 -312 -375 rlineto
          -856 -1014.9900054931641 -104 callsubr
        </CharString>
        <CharString name="Omacron">
          -80 callgsubr
          182.99998474121094 149 246 callgsubr
          242.97999572753906 509.52000427246094 32.5 -16 callsubr
          hintmask 00000000
          hintmask 11111100
          558.9799957275391 1878 rmoveto
          -4 12 callgsubr
          -510.00999450683594 hlineto
          -450.99000549316406 -1268 rmoveto
          -343 6 159.99000549316406 -282.97999572753906 325.02000427246094 hhcurveto
          hintmask 11110100
          424 291 415.97999572753906 521 86 callgsubr
          343 -6 -159.99000549316406 282.00999450683594 -325 hhcurveto
          hintmask 11111100
          -71 callsubr
          hintmask 11110100
          991 273 rmoveto
          -74 callgsubr
          -211 -99 159 353 -6.9900054931640625 hvcurveto
          380 -7 192 361 282.99000549316406 hhcurveto
          211 100 -153 -352.99000549316406 6 hvcurveto
          endchar
        </CharString>
        <CharString name="Oslash">
          -80 callgsubr
          -28 callgsubr
          1158.979995727539 1388.990005493164 -87 callgsubr
        </CharString>
        <CharString name="Oslashacute">
          -80 callgsubr
          112.01998901367188 43 -28 callgsubr
          73 callsubr
          10 -483 -87 callgsubr
        </CharString>
        <CharString name="Otilde">
          -80 callgsubr
          122.00999450683594 -66 callgsubr
          hstemhm
          -25 callsubr
          hintmask 00000000
          hintmask 11011100
          462.99000549316406 83 callgsubr
          59 callsubr
          175 callgsubr
          55 callsubr
          rlinecurve
          hintmask 11101100
          18 callgsubr
          252 callgsubr
          -47 callgsubr
          263 callsubr
          hintmask 11011100
          5 callsubr
          -83 -86 -43 hvcurveto
          hintmask 11101100
          -355 -1191 -104 callsubr
        </CharString>
        <CharString name="P">
          70 0 43 476.97999572753906 214 callsubr
          148 164 callgsubr
          hstemhm
          969.9900054931641 200.99000549316406 hintmask 00000000
          hintmask 11011000
          302.97999572753906 1530 65 callsubr
          hintmask 11101000
          75 callsubr
          203 callsubr
          -164 124 -289 hhcurveto
          hintmask 11011000
          102 callgsubr
          hintmask 11101000
          125 callsubr
          hintmask 11011000
          153 callgsubr
        </CharString>
        <CharString name="Q">
          268 -359.99000549316406 217 callsubr
          160.00999450683594 43 267 callgsubr
          43 110 callsubr
          139.97999572753906 1253.000015258789 156.99000549316406 hstemhm
          -25 callsubr
          hintmask 10101110
          248 callgsubr
          203 callsubr
          rmoveto
          357.99000549316406 69.97999572753906 236 385 -8 470 rrcurveto
          343 -6 -159.99000549316406 282.00999450683594 -325 120 callgsubr
          hintmask 11001110
          6 -335.02000427246094 153 -277.9700012207031 310.99000549316406 -13 rrcurveto
          -232 -29 168 -112 191 hhcurveto
          112 148 24 34 60 callsubr
          hvcurveto
          153.99000549316406 vlineto
          134 callgsubr
          -58 -92 270 callgsubr
          110 callsubr
          hhcurveto
          hintmask 10101110
          -141 -156 9.020004272460938 163 -8 hvcurveto
          hintmask 10011110
          -405 651.9700012207031 rmoveto
          380 -7 192 361 282.99000549316406 hhcurveto
          211 100 -153 -352.99000549316406 6 hvcurveto
          -74 callgsubr
          -211 -99 159 353 -6.9900054931640625 hvcurveto
          endchar
        </CharString>
        <CharString name="R">
          160 -1 -8 callgsubr
          197 callgsubr
          hintmask 01110100
          826.9799957275391 677.9900054931641 -77 callgsubr
        </CharString>
        <CharString name="Racute">
          160 -1 -8 callgsubr
          64 callgsubr
          197 callgsubr
          hintmask 01110110
          1110 100 callgsubr
          264 callgsubr
          -276 -342 34 callgsubr
          62.02000427246094 111 rlinecurve
          -283.02000427246094 -1194 19 callsubr
          hintmask 01101110
          -72 callgsubr
          hintmask 10110110
          -38 callgsubr
          hintmask 01110110
          -83 callgsubr
          endchar
        </CharString>
        <CharString name="Rcaron">
          160 -1 -8 callgsubr
          197 callgsubr
          hintmask 01110100
          840.9900054931641 265 callgsubr
          rmoveto
          -81 callgsubr
          170 callgsubr
          -14.009994506835938 -949 -77 callgsubr
        </CharString>
        <CharString name="Rcommaaccent">
          160 -39 callgsubr
          465.97999572753906 -8 callgsubr
          hstemhm
          556.9900054931641 134 callsubr
          218.99998474121094 214.99000549316406 hintmask 0101110110000000
          826.9799957275391 677.9900054931641 19 callsubr
          hintmask 0101101110000000
          -72 callgsubr
          hintmask 0110110110000000
          -38 callgsubr
          hintmask 0101110110000000
          -83 callgsubr
          9.020004272460938 -878.9799957275391 rmoveto
          172 callsubr
          81 callgsubr
          hintmask 1001110110000000
          80 -50.02000427246094 rlineto
          78 -12 callgsubr
          hintmask 0101110110000000
          261 callsubr
          -75.97999572753906 22 vhcurveto
          endchar
        </CharString>
        <CharString name="S">
          3 callgsubr
          74 callgsubr
          76 callgsubr
          234.99000549316406 -104 callgsubr
          endchar
        </CharString>
        <CharString name="Sacute">
          3 callgsubr
          112.01998901367188 43 74 callgsubr
          631.9900054931641 -19 callsubr
          62 142 callsubr
          -548 -1423.009994506836 -104 callgsubr
          endchar
        </CharString>
        <CharString name="Scaron">
          3 callgsubr
          74 callgsubr
          343.97999572753906 257 callsubr
          243.02000427246094 -298 228 callgsubr
          -81 callgsubr
          rlineto
          -260 -1690.009994506836 -104 callgsubr
          endchar
        </CharString>
        <CharString name="Scedilla">
          -66 -463.99000549316406 -42 callsubr
          284.00999450683594 153.99000549316406 -149 43 1361.990005493164 244 callsubr
          -30.010009765625 171 193.010009765625 -16 callsubr
          hintmask 10110110
          647.9900054931641 1545.990005493164 rmoveto
          hintmask 11011010
          -270.99000549316406 -199 -150 -259.00999450683594 5 hvcurveto
          4 -222 158 -128 153 -100.99000549316406 rrcurveto
          165 -109.02000427246094 52 -92 -112 vvcurveto
          -175 -159 -58.99000549316406 -159 -125.99000549316406 -150 -48 callsubr
          41 -37 vhcurveto
          -40 callsubr
          -159.99000549316406 rlineto
          hintmask 11010110
          40 -34.02000427246094 134 -47.97999572753906 -30 callgsubr
          -7.9900054931640625 rrcurveto
          1 -34.02000427246094 -1 -41 -29 vvcurveto
          -149 -77 -31 -81.97999572753906 267 callgsubr
          -23 5.0200042724609375 9 -17 vhcurveto
          -25.009994506835938 -151 rlineto
          -16 22 -37 callsubr
          -12 53 hhcurveto
          -30 callgsubr
          130 -47 callsubr
          226 hvcurveto
          hintmask 10110110
          237 callsubr
          -24 callgsubr
          216 callsubr
          -14.990005493164062 39.02000427246094 vhcurveto
          250 29.979995727539062 177 142 -4.0099945068359375 271 callgsubr
          -4 12 callsubr
          rrcurveto
          hintmask 10111010
          -171 116.02000427246094 -70 69 7 159.99000549316406 rrcurveto
          171 8.009994506835938 152.99000549316406 35 72 callgsubr
          hhcurveto
          76 128 -29 callsubr
          -65 63 hvcurveto
          63 151 rlineto
          hintmask 10110110
          37 -51 -106 48 -186 hhcurveto
          endchar
        </CharString>
        <CharString name="Scircumflex">
          3 callgsubr
          116.01998901367188 43 74 callgsubr
          343.97999572753906 -46 callsubr
          94 68 -190 344 rlineto
          -178 hlineto
          -327 -344 rlineto
          -260 -1427 -104 callgsubr
          endchar
        </CharString>
        <CharString name="Scommaaccent">
          -66 -39 callgsubr
          450.989990234375 -57 callgsubr
          1255.990005493164 244 callsubr
          -35.010009765625 134 callsubr
          178.02000427246094 -16 callsubr
          hintmask 01111010
          76 callgsubr
          234.99000549316406 -104 callgsubr
          hintmask 01110110
          190 -459.97999572753906 rmoveto
          175 callgsubr
          -24 callgsubr
          108 callgsubr
          224 callgsubr
          -20 72 callsubr
          -6 callgsubr
          -37 vhcurveto
          122 callgsubr
          -25.990005493164062 rlineto
          hintmask 10110110
          -58 callsubr
          -50 callgsubr
          -47 callgsubr
          82 -76 22 vhcurveto
          -149 -101 rlineto
          hintmask 01110110
          -6 40 callsubr
          rlineto
          endchar
        </CharString>
        <CharString name="T">
          12 0 43 1335.509994506836 154 callgsubr
          555.9900054931641 1384 -55 callsubr
          endchar
        </CharString>
        <CharString name="Tbar">
          12 0 43 678.9799957275391 130 526.5299987792969 154 callgsubr
          1174 1373 rmoveto
          49 callgsubr
          157 rlineto
          -1043.990005493164 hlineto
          110 callgsubr
          -157 427.00999450683594 11 -67.00999450683594 -532.0099945068359 rlineto
          -269.99000549316406 hlineto
          -16 -130 rlineto
          268.97999572753906 hlineto
          -91 -721.9799957275391 rlineto
          198 hlineto
          145 callsubr
          721.9799957275391 rlineto
          191 callsubr
          hlineto
          16 130 rlineto
          -271.00999450683594 hlineto
          67.00999450683594 532.0099945068359 420 -11 rlineto
          endchar
        </CharString>
        <CharString name="Tcaron">
          12 0 43 1335.509994506836 154 callgsubr
          374.99000549316406 257 callsubr
          170 callgsubr
          -81 callgsubr
          rlineto
          181 -541 -55 callsubr
          endchar
        </CharString>
        <CharString name="Thorn">
          100 0 43 226.97999572753906 214 callsubr
          149 192.0500030517578 87 callsubr
          937.9799957275391 201 vstem
          1139 907 rmoveto
          75 callsubr
          122 callsubr
          -163.99000549316406 125.00999450683594 -289.02000427246094 hhcurveto
          -77.99000549316406 -67.00999450683594 -24 callgsubr
          -5 -52 callsubr
          hvcurveto
          30.990005493164062 247 rlineto
          -198 41 callgsubr
          198 hlineto
          35 279.97999572753906 rlineto
          -5 29 58 -5 94.99000549316406 hhcurveto
          364.02000427246094 257 244 393.00999450683594 -7 hvcurveto
          -201.02000427246094 -18 rmoveto
          -5 -294.02000427246094 -120 202 callgsubr
          -282.00999450683594 -3 -53 -1 218 callgsubr
          7 -36 8.009994506835938 87 687 rcurveline
          12 58 89 -29 callgsubr
          53 hhcurveto
          199.99000549316406 251 callsubr
          -91 -168 -3 hvcurveto
          endchar
        </CharString>
        <CharString name="U">
          -70 callgsubr
          hstem
          -12 callsubr
          vstem
          158.99000549316406 593 -107 callsubr
        </CharString>
        <CharString name="Uacute">
          -70 callgsubr
          64 callgsubr
          hstem
          -12 callsubr
          vstem
          768.9799957275391 37 callsubr
          62.02000427246094 45 callgsubr
          -610 -1065 -107 callsubr
        </CharString>
        <CharString name="Ubreve">
          -70 callgsubr
          99 231 callgsubr
          -12 callsubr
          175.99000549316406 140 vstem
          524.9799957275391 21 callgsubr
          1 11 11 vvcurveto
          147 callsubr
          67 callgsubr
          -146.99000549316406 hhcurveto
          -126.02000427246094 205 callsubr
          104 89 callgsubr
          -15.009994506835938 hvcurveto
          53 callgsubr
          11 -1 11 -1 -20 callgsubr
          -366 -1367.990005493164 -107 callsubr
        </CharString>
        <CharString name="Ucircumflex">
          -70 callgsubr
          262 callgsubr
          -12 callsubr
          vstem
          480.99000549316406 -46 callsubr
          206 callsubr
          68 -190 344 10 callgsubr
          -344 rlineto
          -322 -1069 -107 callsubr
        </CharString>
        <CharString name="Udieresis">
          -70 callgsubr
          170 callsubr
          hstem
          -12 callsubr
          149.00001525878906 75 callsubr
          151.99998474121094 -61 callgsubr
          vstem
          497.99000549316406 -69 callgsubr
          86 callsubr
          -64.97999572753906 182 callgsubr
          266 callsubr
          hmoveto
          -66 52 -53 63 146 callgsubr
          69 70 77 -88 callgsubr
          vhcurveto
          63 3 -48 53 -76 hhcurveto
          -64 -82 -86 callgsubr
          hvcurveto
          -756 -1222 -107 callsubr
        </CharString>
        <CharString name="Ugrave">
          -70 callgsubr
          64 callgsubr
          hstem
          -12 callsubr
          vstem
          511 100 callgsubr
          -50 callsubr
          211 callgsubr
          34 callsubr
          -36 -37 callsubr
          65 rcurveline
          -276.00999450683594 342 -123.99000549316406 -128 rlineto
          -352.00999450683594 -1279 -107 callsubr
        </CharString>
        <CharString name="Uhungarumlaut">
          -70 callgsubr
          hstem
          -12 callsubr
          vstem
          535.9799957275391 178 callsubr
          -312.00999450683594 113 callgsubr
          -792 -1031.990005493164 -107 callsubr
        </CharString>
        <CharString name="Umacron">
          -70 callgsubr
          229 callsubr
          hstem
          -12 callsubr
          109 callsubr
          175 callsubr
          vstem
          546 1878 rmoveto
          122 callsubr
          12 callgsubr
          165 callgsubr
          -387.00999450683594 -1285 -107 callsubr
        </CharString>
        <CharString name="Uogonek">
          253 22 callsubr
          271.00999450683594 160.99000549316406 1344.0299987792969 87 callsubr
          -12 callsubr
          111.99000549316406 194 vstem
          1128.979995727539 1530 rmoveto
          -111.99000549316406 -886 rlineto
          -358.00999450683594 -45.02000427246094 -128 -140.99000549316406 -214 hhcurveto
          -175 -101.99000549316406 34 callsubr
          195 -4 hvcurveto
          -1 57 5 62 7.9900054931640625 -37 callsubr
          114.00999450683594 902 rcurveline
          -198 hlineto
          -118 -937 -6 -59 -7.9900054931640625 -54 0.9900054931640625 -52 rlinecurve
          -276.00999450683594 5.0200042724609375 152.99000549316406 -167.97000122070312 298 hhcurveto
          29 28 1 -88 callgsubr
          27.020004272460938 hvcurveto
          -82 -52 -143.02000427246094 -99 -118 vvcurveto
          -63 56.02000427246094 -91 174 callgsubr
          44 callsubr
          -56 246 callsubr
          -23 -40 11 55 48 99 146 callsubr
          88 88 hvcurveto
          198 218 callsubr
          123 185.02000427246094 45 348 113.99000549316406 903 rcurveline
          -193 hlineto
          endchar
        </CharString>
        <CharString name="Uring">
          253 273 callgsubr
          1321.979995727539 106 -83.94999694824219 -102 callgsubr
          361.989990234375 108.00999450683594 hstemhm
          -12 callsubr
          -42 callsubr
          173 callgsubr
          342 142 hintmask 10111110
          513.9900054931641 1724.990005493164 rmoveto
          hintmask 11011110
          -164 105 -94 182 268 callsubr
          158 226 callsubr
          250 callgsubr
          98 -168 vhcurveto
          hintmask 10111110
          -161 -186 -90 -185 hvcurveto
          hintmask 11011110
          152 callsubr
          102.02000427246094 36.99000549316406 76 callsubr
          96 callsubr
          174 callsubr
          -59 -81 vhcurveto
          -835.9900054931641 -1158.990005493164 rmoveto
          -6 -59 -7.9900054931640625 -54 0.9900054931640625 -52 rrcurveto
          -276.00999450683594 5.0200042724609375 152.99000549316406 -167.97000122070312 298 hhcurveto
          341 204 170.97999572753906 472 61 hvcurveto
          hintmask 10111110
          113.99000549316406 903 rlineto
          -193 hlineto
          -111.99000549316406 -886 rlineto
          -358.00999450683594 -45.02000427246094 -128 -140.99000549316406 -214 hhcurveto
          -175 -101.99000549316406 34 callsubr
          195 -4 hvcurveto
          -1 57 5 62 7.9900054931640625 -37 callsubr
          114.00999450683594 902 rcurveline
          -198 hlineto
          hintmask 11011110
          -118 -937 rlineto
          endchar
        </CharString>
        <CharString name="Utilde">
          -70 callgsubr
          138 -66 callgsubr
          hstemhm
          -12 callsubr
          hintmask 00000000
          hintmask 11011000
          449.99000549316406 83 callgsubr
          38 175 callgsubr
          34 52 65 -1 rlinecurve
          hintmask 11101000
          51 callgsubr
          hintmask 11011000
          162 callgsubr
          hintmask 11101000
          -291 -1208 -107 callsubr
        </CharString>
        <CharString name="V">
          59 0 43 -43 206.99000549316406 1282.0399932861328 32 callsubr
          128 1157.979995727539 hintmask 10110000
          128 1530 rmoveto
          251.99000549316406 -60 callsubr
          209 hlineto
          697 -5 callsubr
          -209.99000549316406 hlineto
          -476.02000427246094 -1101 rlineto
          hintmask 01110000
          -86 -222 -25 222 -163 1101 rlineto
          hintmask 10110000
          -197.97999572753906 hlineto
          endchar
        </CharString>
        <CharString name="W">
          62 callsubr
          199 callgsubr
          hintmask 10110000
          1687.979995727539 1530 rmoveto
          -417 -1095 rlineto
          hintmask 01110000
          -97 callsubr
          hintmask 10110000
          -200 hlineto
          endchar
        </CharString>
        <CharString name="Wacute">
          62 callsubr
          128.00999450683594 153 callsubr
          1399.990005493164 100 callgsubr
          45 callsubr
          31 callsubr
          169 132 62 111 rlinecurve
          287.99000549316406 -342 rmoveto
          -417 -1095 rlineto
          hintmask 01111000
          -97 callsubr
          hintmask 10111000
          -200 hlineto
          endchar
        </CharString>
        <CharString name="Wcircumflex">
          62 callsubr
          132.00999450683594 153 callsubr
          1101.990005493164 1827.979995727539 rmoveto
          211 201 callgsubr
          234 callgsubr
          344 10 callgsubr
          -344 253 callsubr
          243 rlineto
          586 -297.97999572753906 rmoveto
          -417 -1095 rlineto
          hintmask 01111000
          -97 callsubr
          hintmask 10111000
          -200 hlineto
          endchar
        </CharString>
        <CharString name="Wdieresis">
          663 -9.990005493164062 82 callsubr
          170 callsubr
          hstemhm
          728.9799957275391 63 callgsubr
          hintmask 11111000
          841.9900054931641 1695.990005493164 rmoveto
          77.99000549316406 71 70 77 3 hvcurveto
          63 1.9900054931640625 -47 53 -76.99000549316406 79 callsubr
          -48 53 -76 hhcurveto
          -64 -81.99000549316406 -86 callgsubr
          -66 52 -53 63 hvcurveto
          426.99000549316406 202 callgsubr
          rmoveto
          -417 -1095 -97 callsubr
          -200 hlineto
          endchar
        </CharString>
        <CharString name="Wgrave">
          62 callsubr
          128.00999450683594 153 callsubr
          1068.990005493164 1593 rmoveto
          73 65 143 callgsubr
          -50 callsubr
          211 callgsubr
          -50 callgsubr
          -36 rlinecurve
          618.9900054931641 -63 rmoveto
          -417 -1095 rlineto
          hintmask 01111000
          -97 callsubr
          hintmask 10111000
          -200 hlineto
          endchar
        </CharString>
        <CharString name="X">
          47 168 callgsubr
          -59 1299.979995727539 vstem
          499 792.9900054931641 rmoveto
          -558 -792.9900054931641 rlineto
          239.97999572753906 hlineto
          394.02000427246094 619.9900054931641 247.99000549316406 -619.9900054931641 rlineto
          228 hlineto
          -346.99000549316406 752.9900054931641 536.9900054931641 777.0099945068359 rlineto
          -223.99000549316406 hlineto
          -389 -598.0200042724609 -229 598.0200042724609 rlineto
          -218 hlineto
          318.02000427246094 -737.0099945068359 rlineto
          endchar
        </CharString>
        <CharString name="Y">
          -27 168 callgsubr
          169 callsubr
          vstem
          455.99000549316406 589.9900054931641 rmoveto
          -91 callsubr
          113 callsubr
        </CharString>
        <CharString name="Yacute">
          129 callgsubr
          639 -19 callsubr
          62 111 rlinecurve
          264 callgsubr
          -275.97999572753906 -342 rlineto
          -183 -1068.009994506836 rmoveto
          -91 callsubr
          113 callsubr
        </CharString>
        <CharString name="Ycircumflex">
          169 callgsubr
          262 callgsubr
          169 callsubr
          vstem
          350.99000549316406 -46 callsubr
          94 68 234 callgsubr
          344 10 callgsubr
          -344 rlineto
          105 -1072 rmoveto
          -91 callsubr
          113 callsubr
        </CharString>
        <CharString name="Ydieresis">
          169 callgsubr
          170 callsubr
          hstemhm
          367.97999572753906 63 callgsubr
          hintmask 11111000
          367.97999572753906 49 callsubr
          122 callgsubr
          hvcurveto
          417.02000427246094 hmoveto
          -66 52 242 callsubr
          -48 53 -76 hhcurveto
          -64 -81.97999572753906 -86 callgsubr
          hvcurveto
          -329.00999450683594 -1225.009994506836 rmoveto
          -91 callsubr
          113 callsubr
        </CharString>
        <CharString name="Ygrave">
          129 callgsubr
          380.99000549316406 100 callgsubr
          62 211 callgsubr
          -50 callgsubr
          -36 -47 callsubr
          65 rcurveline
          -275.97999572753906 342 -124.00999450683594 -128 rlineto
          75 -1282 rmoveto
          -91 callsubr
          113 callsubr
        </CharString>
        <CharString name="Z">
          55 callgsubr
          200 callgsubr
          hintmask 11010000
          158 callgsubr
          -22 callgsubr
          -26 callgsubr
          rlineto
          hintmask 10110000
          780 1141 rlineto
          hintmask 11010000
          -2 callgsubr
          -779 -1128 rlineto
          endchar
        </CharString>
        <CharString name="Zacute">
          55 callgsubr
          128.010009765625 43 200 callgsubr
          hintmask 11011000
          704.9799957275391 37 callsubr
          62.02000427246094 45 callgsubr
          -689.9900054931641 -1569.009994506836 -26 callgsubr
          rlineto
          hintmask 10111000
          780 1141 rlineto
          hintmask 11011000
          -2 callgsubr
          -779 -1128 rlineto
          endchar
        </CharString>
        <CharString name="Zcaron">
          55 callgsubr
          200 callgsubr
          hintmask 11010000
          266 callsubr
          257 callsubr
          170 callgsubr
          -81 callgsubr
          rlineto
          -402 -1836.009994506836 -26 callgsubr
          rlineto
          hintmask 10110000
          780 1141 rlineto
          hintmask 11010000
          -2 callgsubr
          -779 -1128 rlineto
          endchar
        </CharString>
        <CharString name="Zdotaccent">
          55 callgsubr
          206 callgsubr
          263 -262.989990234375 43 200 callgsubr
          -542.0000152587891 265.00999450683594 hintmask 00000000
          hintmask 11001010
          640.9799957275391 1815 rmoveto
          23 callgsubr
          -53 callgsubr
          70.97999572753906 70 77 3 hvcurveto
          hintmask 11010010
          63 60 callgsubr
          -46.99000549316406 53 -77 hhcurveto
          hintmask 11001010
          220 callgsubr
          -625.9900054931641 -1726.009994506836 -26 callgsubr
          780 1141 rlineto
          hintmask 11001100
          -2 callgsubr
          rlineto
          hintmask 10101100
          -779 -1128 rlineto
          endchar
        </CharString>
        <CharString name="a">
          35 -85 callgsubr
          hstemhm
          81 -36 callgsubr
          hintmask 10110000
          944.9900054931641 1122 18 callsubr
          hintmask 01110000
          184 callsubr
          hintmask 10110000
          88 callsubr
          -34 rlineto
          -519 -986.0099945068359 -100 callgsubr
        </CharString>
        <CharString name="aacute">
          35 -85 callgsubr
          hstemhm
          81 -36 callgsubr
          hintmask 10110000
          1076 1600 rmoveto
          -152 174 callgsubr
          93 callsubr
          68.02000427246094 rlinecurve
          -357 -444.00999450683594 -27 callsubr
          hintmask 01110000
          42 callsubr
          hintmask 10110000
          120 callsubr
          -293.00999450683594 -1020 -100 callgsubr
        </CharString>
        <CharString name="abreve">
          35 -85 callgsubr
          148 147 hstemhm
          81 -36 callgsubr
          126.989990234375 140 hintmask 10111100
          709 1303.979995727539 rmoveto
          185 callgsubr
          hvcurveto
          -42 callgsubr
          -0.9799957275390625 184 callgsubr
          124 callsubr
          216 vhcurveto
          235.99000549316406 -181.99000549316406 -65 callgsubr
        </CharString>
        <CharString name="acircumflex">
          35 -85 callgsubr
          hstemhm
          81 -36 callgsubr
          hintmask 10110000
          771.9900054931641 1515.990005493164 rmoveto
          89 callsubr
          77 -77 275 callsubr
          rlineto
          -53 -360 -27 callsubr
          hintmask 01110000
          42 callsubr
          hintmask 10110000
          120 callsubr
          -293.00999450683594 -1020 -100 callgsubr
        </CharString>
        <CharString name="acute">
          -551 1260.990005493164 472 hstem
          69 458.99000549316406 vstem
          69 1332 rmoveto
          105 callgsubr
          39 callgsubr
          rlineto
          endchar
        </CharString>
        <CharString name="acute.cap">
          -584 1658 43 hstem
          96 callgsubr
          399.99000549316406 vstem
          96 callgsubr
          37 callsubr
          62 111 rlinecurve
          -123.99000549316406 84 callsubr
          rlineto
          endchar
        </CharString>
        <CharString name="adieresis">
          35 -85 callgsubr
          236 263 hstemhm
          81 -36 callgsubr
          104 141 callsubr
          hintmask 10111110
          501.99000549316406 145 callgsubr
          -1 callsubr
          99 callsubr
          52.97999572753906 -55 65 hhcurveto
          450 263 rmoveto
          209 callsubr
          -26 callsubr
          -233 -499 -27 callsubr
          hintmask 01111110
          42 callsubr
          hintmask 10111110
          120 callsubr
          -293.00999450683594 -1020 -100 callgsubr
        </CharString>
        <CharString name="ae">
          523 -85 callsubr
          -143 143 hstemhm
          81 -36 callgsubr
          401 211 472 195.99000549316406 hintmask 11011110
          1099.979995727539 176 callgsubr
          -90 callgsubr
        </CharString>
        <CharString name="aeacute">
          523 -85 callsubr
          -143 143 hstemhm
          81 -36 callgsubr
          401 211 472 195.99000549316406 hintmask 11011110
          1280 144 callsubr
          -152 137 93 callsubr
          68 rlinecurve
          -180.02000427246094 -1458 -90 callgsubr
        </CharString>
        <CharString name="agrave">
          35 -85 callgsubr
          hstemhm
          81 -36 callgsubr
          hintmask 10110000
          269 callgsubr
          11 callsubr
          250 -142.99000549316406 18 callsubr
          hintmask 01110000
          184 callsubr
          hintmask 10110000
          88 callsubr
          -34 rlineto
          -519 -986.0099945068359 -100 callgsubr
        </CharString>
        <CharString name="amacron">
          35 -85 callgsubr
          243 61 callgsubr
          hstemhm
          81 -36 callgsubr
          190.989990234375 175 callsubr
          hintmask 10111100
          985.9900054931641 29 callsubr
          -41 -425.99000549316406 -65 callgsubr
        </CharString>
        <CharString name="ampersand">
          424 -20 134 -131 139.97999572753906 561.010009765625 146 583 132.99000549316406 hstemhm
          93.97999572753906 204 37.010009765625 179.99000549316406 404.00999450683594 185.99000549316406 4.0099945068359375 181 hintmask 01111010
          1438.990005493164 828.9900054931641 rmoveto
          hintmask 01111001
          -286.97999572753906 1 rlineto
          -88 -49 -17 -18 -18 hvcurveto
          -10 -134 49 callgsubr
          10 37 8 42 -88 callgsubr
          rlinecurve
          12 72 callsubr
          10 -46 -57.02000427246094 vvcurveto
          269 callsubr
          -37 -95 -63 -70 vhcurveto
          -141 130 -117 163.99000549316406 -106.99000549316406 184 rrcurveto
          hintmask 01111110
          219 120 242 122 258.00999450683594 vvcurveto
          136 -123 173 -233 -241 -173 -177 -240.99000549316406 -110 41 -135 48 -105 vhcurveto
          hintmask 01111010
          -175 -99 -155.02000427246094 -116 -195.02000427246094 vvcurveto
          -282.99000549316406 191 callsubr
          -101.99000549316406 236 callsubr
          133 116.02000427246094 23.979995727539062 46 94.99000549316406 vhcurveto
          hintmask 10111001
          -48.99000549316406 130 callsubr
          102.02000427246094 -24 75 hhcurveto
          38 174 callsubr
          3 11 51 hvcurveto
          21.009994506835938 133 callgsubr
          rlineto
          157 callgsubr
          hlineto
          -48 callgsubr
          -2 -76 11 -71 38 rrcurveto
          99 -59 callgsubr
          54 144.02000427246094 179 vvcurveto
          40 -5 108 callgsubr
          -7 26.009994506835938 vhcurveto
          152 hlineto
          hintmask 01111010
          -29 callgsubr
          145 rlineto
          hintmask 01111110
          -924 305.00999450683594 rmoveto
          145 84 134 143 115 62 -82 -115 -163 -162.02000427246094 -97.00999450683594 -180.97999572753906 -48 callgsubr
          vhcurveto
          -30 64 -31 93 117 vvcurveto
          hintmask 01111010
          -217 -762 rmoveto
          120 83 84.00999450683594 133 callsubr
          130 callsubr
          vhcurveto
          100.99000549316406 -170 84.00999450683594 -144 61 callsubr
          -176 rrcurveto
          -25 116 callsubr
          -70 -12 -75 hhcurveto
          -171 -188 58 191.02000427246094 hvcurveto
          endchar
        </CharString>
        <CharString name="aogonek">
          64 22 callsubr
          271.00999450683594 -51 callgsubr
          -135.989990234375 43 969.9799957275391 143 hstemhm
          189 callgsubr
          -36 callgsubr
          201.99998474121094 194 hintmask 11011100
          757.9900054931641 -287 rmoveto
          -23 -40 11 55 hvcurveto
          hintmask 10111100
          91 callgsubr
          vhcurveto
          16.020004272460938 hlineto
          156 35 callgsubr
          88 callsubr
          -34 rlineto
          18 -64.97999572753906 203 callgsubr
          16 -71 hhcurveto
          -450.99000549316406 -187 135 callsubr
          hvcurveto
          hintmask 11011100
          -259.99000549316406 98 -171.99000549316406 212 156 189 callsubr
          103.97000122070312 102.00999450683594 74.02000427246094 vhcurveto
          204 callgsubr
          -189.99000549316406 rlineto
          -76.99000549316406 -47 -168.02000427246094 25 callsubr
          137 44 callsubr
          -55.99000549316406 252 callgsubr
          -6 -36 hhcurveto
          -315.99000549316406 422.99000549316406 rmoveto
          -88 -55 89 215 237 72 callgsubr
          336 286 73 callgsubr
          54 -10 -14.990005493164062 45 hvcurveto
          -86 -604 rlineto
          -106 -66 -124.00999450683594 -142 -140.99000549316406 hhcurveto
          endchar
        </CharString>
        <CharString name="approxequal">
          -47 284.99000549316406 206 callgsubr
          6.0099945068359375 206 callgsubr
          108.00999450683594 206 callgsubr
          5.9999847412109375 166 hstemhm
          -48 callsubr
          976.9900054931641 hintmask 01011000
          104.97999572753906 858.9900054931641 rmoveto
          71 -23 callsubr
          rlineto
          70 47 66 47 89 115 74 -171.99000549316406 153 hhcurveto
          hintmask 01101000
          151 132 -59 callgsubr
          108.00999450683594 29 hvcurveto
          -71 73 rlineto
          -70 -47 -65.99000549316406 -47 -89 -113 -75.99000549316406 172 -153 hhcurveto
          hintmask 01011000
          -151 -129 149 callgsubr
          -48 callgsubr
          -32 hvcurveto
          -50 -446 rmoveto
          71 -23 callsubr
          rlineto
          70 47 215 callsubr
          47 89 115 74.02000427246094 -172 152.99000549316406 hhcurveto
          hintmask 10011000
          151 132.02000427246094 102 48 callgsubr
          29 hvcurveto
          -71 -37 callsubr
          rlineto
          -70 -47 -66 -47 -88.99000549316406 88 callsubr
          -76 171.99000549316406 -153 hhcurveto
          hintmask 01011000
          -151 -128.99000549316406 -114 -48 callgsubr
          -32 hvcurveto
          endchar
        </CharString>
        <CharString name="aring">
          35 -85 callgsubr
          101 106 319 108.00999450683594 hstemhm
          81 -36 callgsubr
          159 173 callgsubr
          342.00999450683594 107 callsubr
          hintmask 10111111
          728.9900054931641 1256.979995727539 rmoveto
          178 157.99000549316406 226 callsubr
          -108 98 -168 -161 -186 203 callgsubr
          -185 -164 104.97999572753906 239 callgsubr
          -58.99000549316406 -81.02000427246094 -146.99000549316406 -87 -32.02000427246094 -102.00999450683594 -88 -64.99000549316406 66.00999450683594 208 callgsubr
          hvcurveto
          -54 -525.9900054931641 -27 callsubr
          hintmask 01111111
          42 callsubr
          hintmask 10111111
          120 callsubr
          -293.00999450683594 -1020 -100 callgsubr
        </CharString>
        <CharString name="asciicircum">
          254 1337.990005493164 192 23 callsubr
          hstemhm
          175.97999572753906 964.9900054931641 hintmask 01100000
          686.9799957275391 1530 rmoveto
          -511 -1020 rlineto
          175 hlineto
          hintmask 10100000
          417.02000427246094 828 -36 callgsubr
          -828 rlineto
          272 callgsubr
          hlineto
          -256.97999572753906 1020 rlineto
          hintmask 01100000
          -197.02000427246094 hlineto
          endchar
        </CharString>
        <CharString name="asciitilde">
          27 719.9900054931641 206 callgsubr
          5.9999847412109375 166 hstemhm
          131.99000549316406 926.9799957275391 hintmask 01100000
          131.99000549316406 847.9900054931641 rmoveto
          71 -23 callsubr
          rlineto
          70 47 215 callsubr
          47 89 115 74 -172 153 hhcurveto
          hintmask 10100000
          151 132 102 108.00999450683594 29 hvcurveto
          -70.97999572753906 -47 callsubr
          rlineto
          -70 -47 -66 -47 -89 -112.99000549316406 -76 172 -153 hhcurveto
          hintmask 01100000
          -151 -129 -114.02000427246094 -48 callgsubr
          -47 callgsubr
          hvcurveto
          endchar
        </CharString>
        <CharString name="asterisk">
          256 1108.0199890136719 -102 callgsubr
          -39.94999694824219 32 callsubr
          217 callgsubr
          999.9900054931641 hintmask 01100000
          217 callgsubr
          982 rmoveto
          77 -167.02000427246094 256.97999572753906 171 118 98 -42 -145 -59 -291 197.02000427246094 -1 -1 292 -16 145 100.99000549316406 -98 219 -170 rlineto
          hintmask 10100000
          115 166.02000427246094 -255 133 callgsubr
          147 callsubr
          47 142 48 279 121 -77 166.99000549316406 -257 -170.99000549316406 -119.99000549316406 -95 43 142 58.99000549316406 291.97999572753906 rlineto
          -192 hlineto
          53 callgsubr
          -291.97999572753906 13 -142 -100 95 -218 169.99000549316406 rlineto
          hintmask 01100000
          -115 202 callgsubr
          255 -121 132 -47 -141.99000549316406 -48 -279 -119.99000549316406 rlineto
          endchar
        </CharString>
        <CharString name="at">
          858 -439.99000549316406 173 callgsubr
          307.97999572753906 153 -148.989990234375 173.99000549316406 781.9999847412109 125 322 131 hstemhm
          121 152 259.99000549316406 178.99000549316406 455.00999450683594 177 372 152.99000549316406 hintmask 1101111110000000
          1184.990005493164 1544.990005493164 rmoveto
          -590.0099945068359 -473.99000549316406 -447 -724 -516.9700012207031 327.99000549316406 -297 449 171 163 46 70 92 hvcurveto
          -33 189 callgsubr
          rlineto
          -32.99000549316406 253 callgsubr
          -192 -41 269 callsubr
          hhcurveto
          -335.00999450683594 -304.99000549316406 191 507.97999572753906 504 332.99000549316406 512 541 305.00999450683594 264 -116 -438.99000549316406 hvcurveto
          hintmask 1011111110000000
          -323.00999450683594 -190 -350.99000549316406 -168 -10 203 callsubr
          10 18 41 -5.0200042724609375 177 callsubr
          10.020004272460938 103.00999450683594 vhcurveto
          215 callgsubr
          201 51.02000427246094 314 39 153 -165 -30 rcurveline
          39 -55.99000549316406 -109 124 callgsubr
          -55 hhcurveto
          -369.99000549316406 -164 -367 -291 -6 hvcurveto
          hintmask 1101111110000000
          -297 -6 61 callgsubr
          -130 135 hhcurveto
          148 78 callsubr
          151 213.02000427246094 96 callsubr
          hvcurveto
          -6 -59 -6 -40 -47 vvcurveto
          hintmask 1011111110000000
          270 callsubr
          0 48 callsubr
          76 callsubr
          266 callgsubr
          344.99000549316406 319 559 vhcurveto
          hintmask 1101111110000000
          400 -259.99000549316406 256 -424 vhcurveto
          -343 -1385 rmoveto
          -101 -29 130 157 148 callgsubr
          125.00999450683594 290 227.99000549316406 55 92 -24 -51 33 hvcurveto
          -240 -30 -236.02000427246094 -492 -136.99000549316406 hhcurveto
          endchar
        </CharString>
        <CharString name="atilde">
          35 -85 callgsubr
          196 -66 callgsubr
          -159.94000244140625 32 callsubr
          81 -36 callgsubr
          hintmask 00000000
          hintmask 10110010
          546.9700012207031 -22 callsubr
          38.02000427246094 40 34 52 64.97999572753906 -1 rrcurveto
          hintmask 10100110
          172.02000427246094 -336 -27 callsubr
          hintmask 01100110
          42 callsubr
          hintmask 10100110
          120 callsubr
          -293.00999450683594 -1020 -100 callgsubr
        </CharString>
        <CharString name="b">
          53 -95 callsubr
          77 callgsubr
          876.9900054931641 152 hstem
          867.9799957275391 202 vstem
          759.9900054931641 1155.990005493164 -3 callgsubr
          114.02000427246094 33.970001220703125 rlineto
          -17.979995727539062 64 76 callsubr
          -95 callsubr
          71 -75 callgsubr
        </CharString>
        <CharString name="backslash">
          -256 -362 1958.990005493164 hstem
          64 callsubr
          749.9900054931641 vstem
          775.9900054931641 -362 rmoveto
          -174 hlineto
          -576 1958.990005493164 rlineto
          173 hlineto
          577 -1958.990005493164 rlineto
          endchar
        </CharString>
        <CharString name="bar">
          126 callsubr
          -1965.990005493164 173 1965.990005493164 -173 vlineto
          endchar
        </CharString>
        <CharString name="braceleft">
          -86 160 callsubr
          159.99000549316406 846.9900054931641 hintmask 10110000
          377 578.9900054931641 rmoveto
          0 -89.00999450683594 -596.9900054931641 -1 -29 vhcurveto
          -110 -1 44 -33 189 callsubr
          hhcurveto
          110 74.02000427246094 49 callgsubr
          26.009994506835938 145 callsubr
          hvcurveto
          0 -29 callgsubr
          -47 callsubr
          3.0200042724609375 15 vhcurveto
          -275.00999450683594 hlineto
          95.00999450683594 630 6 41 -17 36.99000549316406 -30 31.009994506835938 rlinecurve
          -29 30 -54 30.990005493164062 -59 31 rrcurveto
          0 116 53 29 17 vhcurveto
          53 33 37 37 8 54 rrcurveto
          hintmask 11010000
          34 callsubr
          630.9900054931641 rlineto
          276.00999450683594 hlineto
          hintmask 10110000
          0.9799957275390625 19 12 68 0 vvcurveto
          hintmask 11010000
          0 -170.99000549316406 47 -89 -157 -47 40 callsubr
          -198 123 callsubr
          vhcurveto
          -77 -517.0200042724609 122 callsubr
          -23 205 callsubr
          -21 -36 -19 rlinecurve
          -52 -26.990005493164062 -75 -22 -65 204 callgsubr
          -18 -123.99000549316406 rcurveline
          59 -14 63 -25.009994506835938 43 -29 rrcurveto
          hintmask 10110000
          108 callgsubr
          -21 109 callgsubr
          -24 -22 vvcurveto
          endchar
        </CharString>
        <CharString name="braceright">
          -86 -189 134 1655.979995727539 135 -46.989990234375 43 hstemhm
          215 callsubr
          847.0099945068359 hintmask 10110000
          695.9900054931641 966.9799957275391 rmoveto
          hintmask 11010000
          0 89 597.0200042724609 0.9900054931640625 29 vhcurveto
          110 1 -43.99000549316406 33 -125.00999450683594 hhcurveto
          -110 -74 236 callgsubr
          157 callgsubr
          -91 hvcurveto
          0 -24 callgsubr
          -73 -94 callsubr
          -15.009994506835938 vhcurveto
          236 callsubr
          hlineto
          48 callsubr
          -629.9900054931641 -6 -41 17 -37 30 -31 rlinecurve
          29 -29.979995727539062 53.99000549316406 267 callgsubr
          59 -31 rrcurveto
          0 -116 -53 -29 -17 vhcurveto
          -53 -33 72 callsubr
          -37 -8 40 callsubr
          -96.02000427246094 -631 rcurveline
          -275.97999572753906 hlineto
          -1 -18.990005493164062 -12 253 callgsubr
          0 vvcurveto
          0 171 -47 -22 callgsubr
          157 47 54 198 31 vhcurveto
          77 517 4 23 25 49 callgsubr
          36 19.009994506835938 rlinecurve
          52 26.990005493164062 75 160 callgsubr
          65 16 18 124.00999450683594 rcurveline
          -59 13.990005493164062 -63 25 -43 29 rrcurveto
          hintmask 10110000
          -32 21 134 callgsubr
          24 22 vvcurveto
          endchar
        </CharString>
        <CharString name="bracketleft">
          -256 160 callsubr
          179.99000549316406 690.9900054931641 hintmask 00000000
          hintmask 11010000
          380.99000549316406 1483 rmoveto
          -60 -455 -116 -598 236 callgsubr
          -367 rrcurveto
          -3 -40 88 callgsubr
          -36 -34 vvcurveto
          -110 46 -33 190 callsubr
          109 233 callsubr
          49 callgsubr
          26.009994506835938 145 callsubr
          vhcurveto
          3 28 -88 callgsubr
          29 4 29 rrcurveto
          -87 -99.97999572753906 60 callgsubr
          -88 hhcurveto
          222.99000549316406 1655.990005493164 rlineto
          275 hlineto
          hintmask 10110000
          13 87 rlineto
          hintmask 11010000
          0 -172 47 -88 -157.97999572753906 -47 116 callsubr
          -192 -25.009994506835938 vhcurveto
          endchar
        </CharString>
        <CharString name="bracketright">
          -256 -178.99000549316406 134 1655.9800109863281 134.97999572753906 hstem
          44.99000549316406 690.9900054931641 vstem
          535 -47 callsubr
          rmoveto
          174 callsubr
          455 116 598 207 callgsubr
          367 rrcurveto
          -88 callgsubr
          40 1 36 34 vvcurveto
          110 -46 33 -126 -109.02000427246094 -15 callgsubr
          -21 157 callgsubr
          -91.02000427246094 167 callgsubr
          -28 -94 callsubr
          -29 -4.0099945068359375 -29 rrcurveto
          87 100 53 callgsubr
          88 hhcurveto
          -223 -1655.990005493164 rlineto
          -274.97999572753906 hlineto
          -13 -87 rlineto
          0 172 -47 88 158 47 174 callsubr
          192 25 vhcurveto
          endchar
        </CharString>
        <CharString name="breve">
          -393 1299.979995727539 147 hstem
          60 callsubr
          140 vstem
          60 callsubr
          1631.990005493164 rmoveto
          -159 83 -173 216 198 116 163 155 22 vhcurveto
          2 11.020004272460938 198 callgsubr
          -60 -23 -30 -144 -147 hhcurveto
          -125.99000549316406 -25 104 69 261 callgsubr
          9.020004272460938 rrcurveto
          -135 hlineto
          -1 -6 0 -7 -6 vvcurveto
          endchar
        </CharString>
        <CharString name="breve.cap">
          -395 1628.990005493164 231 callgsubr
          60 callsubr
          140 vstem
          60 callsubr
          21 callgsubr
          0.9900054931640625 11 11 vvcurveto
          -132 130 callgsubr
          -125.99000549316406 -25 104 89 callgsubr
          261 callgsubr
          -20 callgsubr
          endchar
        </CharString>
        <CharString name="brokenbar">
          126 callsubr
          -894.0099945068359 173 894.0099945068359 -173 vlineto
          -1072 vmoveto
          -893.9900054931641 173 893.9900054931641 -173 vlineto
          endchar
        </CharString>
        <CharString name="bullet">
          -252 506.97999572753906 432 hstem
          232.97999572753906 427 vstem
          232.97999572753906 682.9900054931641 rmoveto
          -97 76 -79.00999450683594 100 153 98 140 120.02000427246094 99 -75 -47 callsubr
          -101.00999450683594 -141.99000549316406 -109.02000427246094 -136 -119.99000549316406 vhcurveto
          endchar
        </CharString>
        <CharString name="c">
          -41 callsubr
          664.9900054931641 1155.990005493164 -96 callsubr
          hintmask 10110000
          51 167 rlineto
          hintmask 11010000
          29 -57 -91 -52 callgsubr
          -72 hhcurveto
          endchar
        </CharString>
        <CharString name="cacute">
          -41 callsubr
          560.9900054931641 1332 rmoveto
          3 callsubr
          39 callgsubr
          rlineto
          104 -176 -96 callsubr
          hintmask 10110000
          51 167 rlineto
          hintmask 11010000
          29 -57 -91 -52 callgsubr
          -72 hhcurveto
          endchar
        </CharString>
        <CharString name="caron">
          -315 1284.990005493164 394.99000549316406 hstem
          79.99000549316406 734 vstem
          79.99000549316406 1591.990005493164 rmoveto
          243 -307 rlineto
          176 hlineto
          20 callgsubr
          rlineto
          endchar
        </CharString>
        <CharString name="caron.cap">
          -317 265 callgsubr
          386 hstem
          131 callgsubr
          734 vstem
          131 callgsubr
          257 callsubr
          170 callgsubr
          -81 callgsubr
          rlineto
          endchar
        </CharString>
        <CharString name="caronvertical">
          -795 1034.990005493164 644.9900054931641 hstem
          237.99000549316406 61 callsubr
          vstem
          197 1099.979995727539 rmoveto
          6 205 callsubr
          99.99000549316406 -40 rlineto
          72 109 46 175 -68 callsubr
          vvcurveto
          97.02000427246094 -4 76 -24 57 vhcurveto
          -177 -46 -6 callsubr
          -32 rlineto
          -1 callgsubr
          -30 11.020004272460938 -86 -75 vvcurveto
          235 callgsubr
          -19 -111 -22 -93 vhcurveto
          endchar
        </CharString>
        <CharString name="ccaron">
          -41 callsubr
          343.97999572753906 1591.990005493164 58 callgsubr
          -252 244 -87 -88 rlineto
          321 -436 -96 callsubr
          hintmask 10110000
          51 167 rlineto
          hintmask 11010000
          29 -57 -91 -52 callgsubr
          -72 hhcurveto
          endchar
        </CharString>
        <CharString name="ccedilla">
          -205 -460 165 285 43 -41.99000549316406 43 974.9700012207031 16 callgsubr
          84.99000549316406 199 103 171 hintmask 10110110
          647.9900054931641 149 callsubr
          rmoveto
          72 62 -14.990005493164062 -43 52 hvcurveto
          hintmask 10101110
          51 167 rlineto
          hintmask 11010110
          29 -57 -91 -52 callgsubr
          -72 hhcurveto
          -385 -194.99000549316406 -409 -313 -253 105 -159.99000549316406 197 -30.979995727539062 hvcurveto
          1 -34 -1 -41 -30 180 callgsubr
          -17 vhcurveto
          -25 151 callsubr
          hintmask 10110110
          235 callsubr
          -8 52 -15 39.02000427246094 vhcurveto
          139 24.979995727539062 -59 callgsubr
          91 44 59 -65 106 rcurveline
          -97.00999450683594 -100 -75 -41.99000549316406 -88 hhcurveto
          -134 -74 79 callgsubr
          238 324.00999450683594 77 callsubr
          231 170 hvcurveto
          endchar
        </CharString>
        <CharString name="ccircumflex">
          -41 callsubr
          325.97999572753906 14 callsubr
          94 68 -189.99000549316406 374 rlineto
          -178.02000427246094 hlineto
          -327 -374 rlineto
          339 -159.99000549316406 -96 callsubr
          hintmask 10110000
          51 167 rlineto
          hintmask 11010000
          29 -57 -91 -52 callgsubr
          -72 hhcurveto
          endchar
        </CharString>
        <CharString name="cdotaccent">
          -205 -95 callsubr
          61 callgsubr
          875.9799957275391 31 callgsubr
          245 callsubr
          84.99000549316406 199 262 -61 callgsubr
          hintmask 11011100
          546 1512 -10 callsubr
          35 callsubr
          -356 -96 callsubr
          hintmask 10111100
          51 167 rlineto
          hintmask 11011100
          29 -57 -91 -52 callgsubr
          -72 hhcurveto
          endchar
        </CharString>
        <CharString name="cedilla">
          -631 -463.99000549316406 -42 callsubr
          hstem
          271 callgsubr
          171 vstem
          331.97999572753906 34 rmoveto
          -76.99000549316406 122 callsubr
          rlineto
          6.9900054931640625 -47 callgsubr
          -94 callsubr
          -71.99000549316406 -45.02000427246094 vvcurveto
          -149 -77 -31 262 callsubr
          5.0200042724609375 9 -17 vhcurveto
          -25 -151 rlineto
          -16 22 -47 callsubr
          -12 53 hhcurveto
          148 130 -47 callsubr
          226 88 -17 68.00999450683594 -28.020004272460938 38.970001220703125 hvcurveto
          -53 4.0200042724609375 rlineto
          endchar
        </CharString>
        <CharString name="cent">
          -53 -214.99000549316406 347.99000549316406 -147.99000549316406 -30 callgsubr
          -135 43 967.9799957275391 146 -146 348.99000549316406 -243.94000244140625 32 callsubr
          174 callgsubr
          199 hintmask 00110010
          699.9900054931641 149 callsubr
          rmoveto
          72 62 -14.990005493164062 -43 52 hvcurveto
          hintmask 00100110
          51 167 rlineto
          hintmask 00110010
          -6 callgsubr
          24 -71 11 -64 2 rrcurveto
          hintmask 00101010
          51 203 rlineto
          -150 hlineto
          -54 -215 rlineto
          -308 -72 -156 -356.99000549316406 -280 vvcurveto
          -236 145 callsubr
          -155 172 -44.99000549316406 vhcurveto
          hintmask 10010010
          -39 -212.99000549316406 rlineto
          150.02000427246094 hlineto
          hintmask 01010010
          36.99000549316406 200 159 13.990005493164062 117 102.99000549316406 48 64 rlinecurve
          -65 106 rlineto
          -97.00999450683594 -100 -75 -41.99000549316406 -88 hhcurveto
          -134 -74 79 callgsubr
          238 hvcurveto
          hintmask 00110010
          324.00999450683594 77 callsubr
          231 170 vhcurveto
          endchar
        </CharString>
        <CharString name="circumflex">
          -315 1238.990005493164 450.99000549316406 hstem
          -22 callgsubr
          695 vstem
          -22 callgsubr
          14 callsubr
          94 68 -190 374 rlineto
          -178 hlineto
          -327 -374 rlineto
          endchar
        </CharString>
        <CharString name="circumflex.cap">
          -315 1662 43 hstem
          60 callsubr
          695 vstem
          60 callsubr
          -46 callsubr
          94 68 234 callgsubr
          344 10 callgsubr
          -344 rlineto
          endchar
        </CharString>
        <CharString name="colon">
          -584 -22 95 callgsubr
          536.989990234375 95 callgsubr
          hstemhm
          67.99000549316406 275.97999572753906 -182.97999572753906 275.97999572753906 hintmask 00000000
          hintmask 11010000
          317.99000549316406 1058.979995727539 rmoveto
          -95 -62 -76.97999572753906 -83 248 callsubr
          54 -46 -11 callsubr
          95 62 60 100 59 -34 52.97999572753906 116 callgsubr
          hvcurveto
          hintmask 11100000
          -93 -808.9799957275391 rmoveto
          -95 214 callgsubr
          -11 callsubr
          95 62 174 callsubr
          100 59 -34 53 -85 hvcurveto
          endchar
        </CharString>
        <CharString name="colonmonetary">
          223 -95 callsubr
          43 -43 149.97999572753906 -145.989990234375 43 -32 43 1351.990005493164 152 -152 421 -321.9600067138672 32 callsubr
          -11 callgsubr
          217 hintmask 00011001
          618.9900054931641 -352.99000549316406 rmoveto
          117 hlineto
          hintmask 00100011
          70 340.99000549316406 175 13.990005493164062 138 44 67.00999450683594 215 callsubr
          rlinecurve
          -57.02000427246094 129 -77.99000549316406 -48.99000549316406 115 callsubr
          252 callgsubr
          -129.99000549316406 -14 rlinecurve
          252.99000549316406 1241 76 -13 49 236 callgsubr
          18 -18 rlinecurve
          64 163 -45.02000427246094 14.009994506835938 -57 17 -74 11 rlinecurve
          hintmask 00010101
          57 281 rlineto
          -116 hlineto
          hintmask 00011001
          -55 -270 rlineto
          1 -15 -14.990005493164062 0 204 callgsubr
          hhcurveto
          123 callsubr
          -30 -2 -94 callsubr
          -30 hvcurveto
          hintmask 00010101
          73 callgsubr
          274 rlineto
          -117 211 callsubr
          -295.02000427246094 rlineto
          -357 -90.99000549316406 -245 -325 -454 vvcurveto
          -241 86 -260 214.02000427246094 -110 vhcurveto
          268 callgsubr
          -391.97999572753906 rlineto
          116 hlineto
          72.00999450683594 351.99000549316406 rlineto
          hintmask 10001001
          -10 40 44.02000427246094 -5 47.99000549316406 hhcurveto
          1 hlineto
          hintmask 00011001
          -69 -337 rlineto
          310 1746.979995727539 rmoveto
          16 16 0 -1 124 callgsubr
          hvcurveto
          hintmask 01001001
          -257 -1259 rlineto
          -2 hlineto
          -48.99000549316406 -43 8 124 callgsubr
          36 callgsubr
          hvcurveto
          251.99000549316406 1231 rlineto
          hintmask 00011001
          3.9900054931640625 29 30 2 31 hhcurveto
          -565 -713.0099945068359 rmoveto
          6 350 127 235 218 89 -230 -1129 rcurveline
          -91 97 -34 206 callgsubr
          4 192 rrcurveto
          endchar
        </CharString>
        <CharString name="comma">
          -584 -500.99000549316406 43 hstem
          -42 callsubr
          190 callgsubr
          vstem
          69 82.97999572753906 -4 callsubr
        </CharString>
        <CharString name="copyright">
          1019 81.97999572753906 129 268 156.99000549316406 657.0099945068359 156.99000549316406 264.02000427246094 190 callsubr
          hstem
          77 callsubr
          142 285 77 callsubr
          977.0199890136719 -36 callsubr
          53 1239 rmoveto
          -323.00999450683594 -173 -214 -280 -248 163 -229 277 133 121 40 54 65 hvcurveto
          -45 124.00999450683594 rlineto
          -28 -49.99000549316406 -92.02000427246094 -33 -104.97999572753906 hhcurveto
          -160.02000427246094 -113 118 217 180 99 107 callsubr
          184 100 70 -26.990005493164062 -36 -48 callsubr
          hvcurveto
          32 164 rlineto
          -1 callgsubr
          -35 -75 36 -128 hhcurveto
          endchar
        </CharString>
        <CharString name="currency">
          430 251.99000549316406 132.99000549316406 609.989990234375 133.00999450683594 -33.96000671386719 32 callsubr
          341.99000549316406 -30 callgsubr
          584.0099945068359 -30 callgsubr
          hintmask 10111000
          1221.979995727539 689.9900054931641 rmoveto
          hintmask 11011000
          89 -27 79 callgsubr
          -45 69 vhcurveto
          191 191.02000427246094 -113 113.99000549316406 -190 -188.99000549316406 rlineto
          51 -72 -88.99000549316406 30 -95 hhcurveto
          -90.99000549316406 115 callsubr
          -27.020004272460938 -47 -71 hvcurveto
          hintmask 10111000
          -193.99000549316406 195 88 callsubr
          149 callgsubr
          193 -192.99000549316406 rlineto
          -50 -71 -30 -87 -94 vvcurveto
          -95.00999450683594 30 -88 52 -71.99000549316406 vhcurveto
          -192 -192 113.99000549316406 88 callsubr
          194 194 rlineto
          -46 69 76 callgsubr
          157 callgsubr
          89 hhcurveto
          93 85.02000427246094 28 49 70.97999572753906 hvcurveto
          194 -194 113.99000549316406 133 callsubr
          -193.99000549316406 194 rlineto
          60 callsubr
          70 28 86 92 vvcurveto
          -440 -305.00999450683594 rmoveto
          -162 -130 138.02000427246094 167 hvcurveto
          hintmask 11011000
          167 130 176 callgsubr
          162 162 130 -137.99000549316406 -167 vhcurveto
          hintmask 10111000
          -167 -130 -138.02000427246094 -162 vhcurveto
          endchar
        </CharString>
        <CharString name="d">
          51 -85 callgsubr
          -55.96000671386719 221 callsubr
          hintmask 10101000
          937.9799957275391 135 callgsubr
          rmoveto
          hintmask 10011000
          105 callsubr
          hintmask 10101000
          -83 callsubr
          hintmask 01101000
          15 callgsubr
          hintmask 10101000
          -195 hlineto
          -513.9900054931641 -1502 -87 callsubr
        </CharString>
        <CharString name="dagger">
          -295 1126.990005493164 204 callsubr
          hstem
          457.99000549316406 121.97000122070312 vstem
          387.99000549316406 1007.9799957275391 rmoveto
          -93 -856.9900054931641 rlineto
          117 hlineto
          -42 callsubr
          856.9900054931641 6 72 callgsubr
          rlineto
          271.02000427246094 hlineto
          49 callgsubr
          150 rlineto
          -293 hlineto
          61 192 30 177 rlineto
          234 callgsubr
          hlineto
          -23.979995727539062 -177 -2 -192 rlineto
          -300 hlineto
          110 callgsubr
          -150 rlineto
          279 hlineto
          -25.990005493164062 270 callsubr
          rlineto
          endchar
        </CharString>
        <CharString name="daggerdbl">
          -295 628.9799957275391 150.00999450683594 348.00001525878906 204 callsubr
          hstemhm
          387.47999572753906 204.49000549316406 -122.49000549316406 394.99000549316406 hintmask 11100000
          323.99000549316406 509.99000549316406 rmoveto
          -44 -560.9900054931641 rlineto
          115.02000427246094 hlineto
          117.99000549316406 560.9900054931641 7 35 callsubr
          rlineto
          214 hlineto
          207 callgsubr
          150.02000427246094 rlineto
          -225.02000427246094 hlineto
          59 202 6 146 rlineto
          hintmask 11010000
          259.02000427246094 hlineto
          49 callgsubr
          150 rlineto
          -281 hlineto
          61 192 30 177 rlineto
          hintmask 11100000
          -190 hlineto
          205 callsubr
          -177 -1 -192 rlineto
          -271.00999450683594 hlineto
          134 callgsubr
          -150 rlineto
          249 hlineto
          -40 -146 1 -202 rlineto
          -229 hlineto
          -24 -150.02000427246094 rlineto
          218 hlineto
          -29 -118.99000549316406 rlineto
          endchar
        </CharString>
        <CharString name="dcaron">
          319 -85 callgsubr
          69 callsubr
          982.9999847412109 183 hintmask 10111000
          1419 1649.990005493164 rmoveto
          57 callgsubr
          -18.990005493164062 -111 110 callgsubr
          -93 vhcurveto
          51 callsubr
          122 callsubr
          76 -23.979995727539062 57 vhcurveto
          -549 -509.00999450683594 rmoveto
          -83 callsubr
          hintmask 01111000
          15 callgsubr
          -195 hlineto
          hintmask 10111000
          105 callsubr
          -446 -1005 -87 callsubr
        </CharString>
        <CharString name="dcroat">
          51 -85 callgsubr
          -55.96000671386719 -102 callgsubr
          121.010009765625 78 callsubr
          69 callsubr
          hintmask 10101100
          1225.990005493164 145 callgsubr
          -126.00999450683594 hlineto
          33 246 rlineto
          -195 hlineto
          -32.99000549316406 -246 rlineto
          -261 hlineto
          -16 -129.99000549316406 rlineto
          271 callgsubr
          hlineto
          hintmask 10011100
          -17 -121.02000427246094 rlineto
          hintmask 10101100
          -83 callsubr
          hintmask 01101100
          -16 -193.99000549316406 rlineto
          174 hlineto
          170 1262 rlineto
          128 hlineto
          hintmask 10101100
          16 78 callsubr
          rlineto
          -802 -1256 -87 callsubr
        </CharString>
        <CharString name="degree">
          -211 954.9799957275391 121.00999450683594 402.99000549316406 121.00999450683594 hstem
          143.99000549316406 140 379.989990234375 140 vstem
          143.99000549316406 1277.990005493164 rmoveto
          -177 -3 137.02000427246094 -146 185 hhcurveto
          193 145 138.02000427246094 185 -88 callgsubr
          hvcurveto
          171 callsubr
          3 -140 145.02000427246094 -185 hhcurveto
          -193 -142 -139.02000427246094 -182.99000549316406 -94 callsubr
          hvcurveto
          519.9900054931641 hmoveto
          -116 53 callgsubr
          -81 -86 -111 hhcurveto
          -106 -82 91 111 2 hvcurveto
          115 60 callgsubr
          146 callgsubr
          86 111 hhcurveto
          105.99000549316406 83 117 callgsubr
          -111 -2 hvcurveto
          endchar
        </CharString>
        <CharString name="dieresis">
          -301 1387.990005493164 263 hstemhm
          174 callsubr
          -61 callgsubr
          152.99998474121094 24 callsubr
          hintmask 11100000
          7 callgsubr
          420 hmoveto
          99 callsubr
          216 callsubr
          85 callgsubr
          -27 callgsubr
          endchar
        </CharString>
        <CharString name="dieresis.cap">
          -303 1695.979995727539 263 hstemhm
          57.99000549316406 75 callsubr
          152.00999450683594 24 callsubr
          hintmask 11100000
          58 -69 callgsubr
          86 callsubr
          -65 -75 220 callsubr
          417 hmoveto
          -66 52 -53 63 80 69 70 77 3.0200042724609375 vhcurveto
          63 -88 callgsubr
          -6 callgsubr
          53 -76 hhcurveto
          -64 -82 -86 callgsubr
          hvcurveto
          endchar
        </CharString>
        <CharString name="divide">
          228 251.99000549316406 95 callgsubr
          172.00999450683594 156.99000549316406 172.99998474121094 95 callgsubr
          hstemhm
          589.9799957275391 295.99000549316406 hintmask 00000000
          hintmask 11110000
          589.9900054931641 1151 rmoveto
          177 callgsubr
          -6 callsubr
          235 callsubr
          -47 70 hhcurveto
          76 88 60 87 10 hvcurveto
          68 8 -36 57 -93 hhcurveto
          -75 -91 -63 95 callsubr
          86 callgsubr
          -331 -298 rmoveto
          -18 -157 rlineto
          869.0099945068359 hlineto
          18 157 rlineto
          -869 hlineto
          235 -476 rmoveto
          177 callgsubr
          -24 callgsubr
          60 -47 71 hhcurveto
          96 callgsubr
          84 60 87 11 hvcurveto
          176 callsubr
          8 -35 58 -93 hhcurveto
          -76 -89 -64 -82.99000549316406 -10 hvcurveto
          endchar
        </CharString>
        <CharString name="dollar">
          94 232 callsubr
          361.97999572753906 -150.989990234375 52 callsubr
          1262 144.99000549316406 -144.99000549316406 334.99000549316406 -230.95001220703125 32 callsubr
          282.99000549316406 198 333.989990234375 206 hintmask 01001110
          852.9900054931641 1538.990005493164 rmoveto
          hintmask 01010110
          31 189.99000549316406 rlineto
          -181 hlineto
          -30 -187.99000549316406 -232 -25 -163 -146 5 -234 rlinecurve
          4 -222 158 -127 153 -100.99000549316406 rrcurveto
          -42 callsubr
          -109.02000427246094 52 -92 -112 vvcurveto
          -175 -10 callgsubr
          -65.99000549316406 -159 -125.99000549316406 -150 -48 callsubr
          41 -37 vhcurveto
          -55 -159.99000549316406 37 -31 116 110 callsubr
          135 -13 rlinecurve
          hintmask 10100110
          -34 -210.99000549316406 rlineto
          180 hlineto
          35 213 250 30.979995727539062 171 callsubr
          148 -4 271 callgsubr
          rlinecurve
          203 callsubr
          12 callsubr
          -171 116.02000427246094 -70 67.99000549316406 7 159.99000549316406 rrcurveto
          171 7.9900054931640625 153 35 72 callgsubr
          hhcurveto
          76 128 -29 callsubr
          -64.99000549316406 63 hvcurveto
          63 151 rlineto
          hintmask 01001110
          -41 29 -75 36.99000549316406 -122 13 rrcurveto
          endchar
        </CharString>
        <CharString name="dong">
          224 0 268 callsubr
          112.989990234375 167 626 164 124.010009765625 61 callgsubr
          hstem
          61 callsubr
          190 callgsubr
          vstem
          729.9900054931641 1520.990005493164 rmoveto
          -23 159 callsubr
          rlineto
          273 hlineto
          -24 -169 rlineto
          17 -47 callgsubr
          -59 28 65 callgsubr
          hhcurveto
          -361 252 callsubr
          -272 -325 -2 hvcurveto
          -245 -2 161.02000427246094 108 callsubr
          199 hhcurveto
          180 99 89 callgsubr
          41 60 callsubr
          hvcurveto
          -6 callsubr
          -70 -1 -8 -5 vvcurveto
          -12 -88 callgsubr
          78 callgsubr
          124 callgsubr
          vhcurveto
          149 hlineto
          153 1081.020004272461 rlineto
          234.99000549316406 hlineto
          23.020004272460938 61 callgsubr
          rlineto
          -237.02000427246094 hlineto
          24 173 rlineto
          -196 hlineto
          157 callgsubr
          -173 rlineto
          -272 hlineto
          12 -437 rmoveto
          112 58 -27 -12 12 hvcurveto
          253 callgsubr
          -481 rlineto
          110 callgsubr
          -28 -40 callsubr
          95 callsubr
          -204 hhcurveto
          -114.02000427246094 -65 76 158 1 hvcurveto
          184 1 110 208 240 hhcurveto
          -669 -906 rmoveto
          -27 -177.99000549316406 rlineto
          1105 hlineto
          26.990005493164062 268 callsubr
          rlineto
          -1105 hlineto
          endchar
        </CharString>
        <CharString name="dotaccent">
          -723 1387.990005493164 263 hstem
          174 callsubr
          -61 callgsubr
          vstem
          7 callgsubr
          endchar
        </CharString>
        <CharString name="dotaccent.cap">
          -721 1695.979995727539 -20 callsubr
          57.99000549316406 75 callsubr
          hintmask 01100000
          58 -69 callgsubr
          hintmask 10100000
          86 callsubr
          hintmask 01100000
          -65 -75 220 callsubr
          endchar
        </CharString>
        <CharString name="dotlessi">
          30 callsubr
          hstem
          132 callsubr
          350 vstem
          279 1140 -94 callgsubr
          endchar
        </CharString>
        <CharString name="e">
          -75 -85 callsubr
          hstem
          86 -16 callsubr
          476.989990234375 196 vstem
          683.9900054931641 1155.990005493164 -106 callsubr
        </CharString>
        <CharString name="eacute">
          -75 -85 callsubr
          hstem
          86 -16 callsubr
          476.989990234375 196 vstem
          554.9900054931641 1332 rmoveto
          3 callsubr
          39 callgsubr
          rlineto
          129 -176 -106 callsubr
        </CharString>
        <CharString name="ebreve">
          -75 -85 callsubr
          148 147 hstemhm
          86 -16 callsubr
          56 140 280.989990234375 196 hintmask 00000000
          hintmask 11111110
          348 1635.979995727539 258 callgsubr
          124 callsubr
          216 70 callgsubr
          160 callgsubr
          vhcurveto
          60 callgsubr
          11 1 11 11 vvcurveto
          -131.99000549316406 -54 callsubr
          44 callgsubr
          336 -479.99000549316406 rmoveto
          hintmask 11111010
          -351.00999450683594 -237 -321 -401 -9.990005493164062 hvcurveto
          -228 -6 116 -221.97999572753906 283 hhcurveto
          194 159 122.97999572753906 79.00999450683594 57 hvcurveto
          -55 110.99000549316406 rlineto
          -106.99000549316406 -114 -118 -52 -100 hhcurveto
          -79 callgsubr
          hintmask 11111110
          141 -89 109 -192 vhcurveto
          84.99000549316406 -267 rmoveto
          hintmask 11111010
          -197 -309.97999572753906 -121.02000427246094 -162.02000427246094 258 callsubr
          20 120 268 204 hhcurveto
          hintmask 11111110
          74.02000427246094 53.99000549316406 -28 -90.99000549316406 hvcurveto
          endchar
        </CharString>
        <CharString name="ecaron">
          -75 -85 callsubr
          hstem
          86 -16 callsubr
          476.989990234375 196 vstem
          337.97999572753906 1591.990005493164 58 callgsubr
          -252 244 -87 -88 rlineto
          346.00999450683594 -436 -106 callsubr
        </CharString>
        <CharString name="ecircumflex">
          -75 -85 callsubr
          hstem
          86 -16 callsubr
          476.989990234375 196 vstem
          320 1315.979995727539 rmoveto
          76.97999572753906 -76.99000549316406 106 callgsubr
          94 68 -189.99000549316406 374 rlineto
          -178.02000427246094 hlineto
          -326.97999572753906 -374 rlineto
          363.99000549316406 -159.99000549316406 -106 callsubr
        </CharString>
        <CharString name="edieresis">
          -75 -85 callsubr
          232.010009765625 263 hstemhm
          86 -16 callsubr
          33 -61 callgsubr
          152.99998474121094 266 callgsubr
          -243.02000427246094 196 hintmask 00000000
          hintmask 10111110
          325 187 callsubr
          -65 -3 71 callgsubr
          80 171 callgsubr
          3 166 callsubr
          -88 callgsubr
          -48.99000549316406 53 -76 hhcurveto
          -73.02000427246094 -69 -18 callsubr
          419.99000549316406 hmoveto
          127 callsubr
          65 hhcurveto
          80 171 callgsubr
          3 166 callsubr
          -88 callgsubr
          -49 53 -75.99000549316406 hhcurveto
          -73.00999450683594 186 callgsubr
          hintmask 11101001
          -60.99000549316406 -351.99000549316406 -106 callsubr
        </CharString>
        <CharString name="edotaccent">
          -75 -85 callsubr
          236 263 hstemhm
          86 -16 callsubr
          248 -61 callgsubr
          -38.00001525878906 196 hintmask 00000000
          hintmask 10111100
          540 1512 43 callgsubr
          209 callsubr
          hintmask 11101010
          144 -356 -106 callsubr
        </CharString>
        <CharString name="egrave">
          -75 -85 callsubr
          hstem
          86 -16 callsubr
          476.989990234375 196 vstem
          276.99000549316406 1600 rmoveto
          30 callgsubr
          84.99000549316406 70 rcurveline
          25 callgsubr
          rlineto
          407 -444.00999450683594 -106 callsubr
        </CharString>
        <CharString name="eight">
          160 -95 callsubr
          135.99000549316406 1319.979995727539 129 hstemhm
          122.97999572753906 212 -38 201 370 216 -133 196.99000549316406 hintmask 00000000
          hintmask 11010100
          489.97999572753906 820.9799957275391 rmoveto
          hintmask 11101000
          -193 -82 -174 -172.99000549316406 -214 vvcurveto
          -247 228 -120.97000122070312 206 292 234.99000549316406 156.97000122070312 266.02000427246094 168 -127 190 callsubr
          -146 -59 callgsubr
          vhcurveto
          hintmask 11010100
          170 55 167 179 203 vvcurveto
          202.02000427246094 -168 127 -216 -267 -200 -146 -262 -153 84 -99 109 -88 vhcurveto
          461 404.00999450683594 rmoveto
          -158 -105 -127 -136.99000549316406 -61 vhcurveto
          -123 88 -88 92 138.02000427246094 vvcurveto
          134 103 108.99000549316406 141 111 98 251 callgsubr
          -141 vhcurveto
          hintmask 11101000
          -359 -1105 rmoveto
          -156 -101 106 151 hvcurveto
          3.9900054931640625 163 114.02000427246094 139 140 69 rrcurveto
          173 -115 -59 callgsubr
          -116 -148 vvcurveto
          -144 -117 -105 -10 callgsubr
          vhcurveto
          endchar
        </CharString>
        <CharString name="ellipsis">
          469 -22 95 callgsubr
          hstemhm
          87.97999572753906 278.02000427246094 247.99000549316406 277.99000549316406 248.00999450683594 277.99000549316406 hintmask 00000000
          hintmask 11110000
          245.99000549316406 250 rmoveto
          -75 -72.00999450683594 -64 -83 -11 hvcurveto
          -78 -10 49 -46.97999572753906 70.99000549316406 hhcurveto
          79.00999450683594 77 57.97999572753906 89 12 hvcurveto
          68 -29 callgsubr
          -34 57.02000427246094 -95 hhcurveto
          526 hmoveto
          -75 -72.00999450683594 -64 -83 -11 hvcurveto
          -78 -10 60 callsubr
          -46.97999572753906 71 hhcurveto
          78.99000549316406 9 callgsubr
          48 callsubr
          hhcurveto
          525.9900054931641 hmoveto
          -75 -71.99000549316406 -64 -83 -11 hvcurveto
          -78 -10.020004272460938 49 -46.97999572753906 71 hhcurveto
          78.99000549316406 77 57.97999572753906 89 12 hvcurveto
          68 -29 callgsubr
          -34 57.02000427246094 -95 hhcurveto
          endchar
        </CharString>
        <CharString name="emacron">
          -75 -85 callsubr
          243 61 callgsubr
          hstemhm
          86 -16 callsubr
          119.989990234375 509.52000427246094 -152.52000427246094 196 hintmask 00000000
          hintmask 10111100
          413.97999572753906 150 callsubr
          hintmask 11111010
          270.00999450683594 -391.99000549316406 -106 callsubr
        </CharString>
        <CharString name="emdash">
          921 223 callsubr
          1620 vstem
          246.99000549316406 850.9799957275391 rmoveto
          -29 -157 rlineto
          1590 hlineto
          30 157 rlineto
          -1591.009994506836 hlineto
          endchar
        </CharString>
        <CharString name="endash">
          428 223 callsubr
          1126.990005493164 vstem
          247.99000549316406 850.9799957275391 rmoveto
          -30 -157 rlineto
          1096.990005493164 hlineto
          30 157 rlineto
          -1096.990005493164 hlineto
          endchar
        </CharString>
        <CharString name="eng">
          84 -518 106 412 43 931.9900054931641 181 -56.96000671386719 243 callsubr
          hintmask 11101000
          843.9799957275391 143 callsubr
          -162 -164.99000549316406 -109 -134 108 callsubr
          hvcurveto
          hintmask 11011000
          21.009994506835938 227 rlineto
          -185 hlineto
          -155.02000427246094 -1140 -16 callgsubr
          189 callgsubr
          709.9799957275391 rlineto
          hintmask 11101000
          139.02000427246094 105 170 126 112 hhcurveto
          -11 callsubr
          40 -14.990005493164062 -106 -138.02000427246094 -49.99000549316406 -315.99000549316406 -54 -335.00999450683594 hvcurveto
          -238.97999572753906 36 callgsubr
          -70 -238 -194 hhcurveto
          -11 -41 4 8.009994506835938 -18 hvcurveto
          -35 -81 rlineto
          -24 160 callgsubr
          -48 callsubr
          -13 63 hhcurveto
          228 173 167 351 53 hvcurveto
          52 338.97999572753906 64 405.02000427246094 122 vvcurveto
          107 callgsubr
          endchar
        </CharString>
        <CharString name="eogonek">
          -59 22 callsubr
          271.00999450683594 153.99000549316406 286.97999572753906 139.00999450683594 443.99000549316406 148 hstem
          86 -16 callsubr
          62 77 callsubr
          220.99998474121094 196 vstem
          501.99000549316406 176 callgsubr
          rmoveto
          -79 callgsubr
          141 -89 109 -192 -351.00999450683594 -237 -321 -401 -9.990005493164062 vhcurveto
          -228 -6 116 -221.97999572753906 283 hhcurveto
          41 40 6 -29 callgsubr
          38.02000427246094 hvcurveto
          177 callgsubr
          -47 202 callgsubr
          -106 -127 vvcurveto
          -63 73 callgsubr
          -91 174 callgsubr
          116.02000427246094 87 58 36 41.99000549316406 114 callsubr
          -56 -38 185 callsubr
          240 216.99000549316406 61 67.00999450683594 hvcurveto
          -7 -4 19 215 callgsubr
          16 18 12 16.020004272460938 rlinecurve
          -55 110.99000549316406 rlineto
          -106.99000549316406 -114 -118 -52 -100 hhcurveto
          139 869.9900054931641 rmoveto
          74.02000427246094 53.99000549316406 -28 -90.99000549316406 -197 -309.97999572753906 -121.02000427246094 -162.02000427246094 -6.9900054931640625 hvcurveto
          175.99000549316406 20 120 268 204 hhcurveto
          endchar
        </CharString>
        <CharString name="equal">
          -47 338.97999572753906 161 callgsubr
          217 callsubr
          1004.9900054931641 225 callgsubr
          -70 -509.00999450683594 225 callgsubr
          endchar
        </CharString>
        <CharString name="estimated">
          262 -95 callsubr
          116.97999572753906 529.9900054931641 137 470.010009765625 117.99000549316406 hstem
          115 259.99000549316406 660.989990234375 244.00999450683594 vstem
          1268.979995727539 630.9900054931641 rmoveto
          11.020004272460938 51 0 64 86.02000427246094 vvcurveto
          -11.020004272460938 328.99000549316406 -238 200 -288.99000549316406 -5.0200042724609375 rrcurveto
          -420 -6.9900054931640625 156 callsubr
          -286 -392 vvcurveto
          -430 217 callgsubr
          -256.97999572753906 392.00999450683594 138 199 36.97999572753906 235 callsubr
          84.99000549316406 vhcurveto
          -39 133 callsubr
          rlineto
          -33 -65 -151 -61 -145 hhcurveto
          -163 -140 47 132 -82 hvcurveto
          351 894 vlineto
          -540 607.0099945068359 rmoveto
          158 94 -52 -77 -48 callsubr
          hvcurveto
          -340.99000549316406 -661 285 vlineto
          132 80 130 53 144 hhcurveto
          endchar
        </CharString>
        <CharString name="eth">
          72 -95 callsubr
          176 callgsubr
          891.9799957275391 142 332.0500030517578 -102 callgsubr
          133.00999450683594 43 hstem
          -22 callgsubr
          211 591.989990234375 196 vstem
          788.9900054931641 1558 rmoveto
          -30 callgsubr
          169 -98 -22 callgsubr
          rlineto
          0 117 callgsubr
          -109 -63 -69 vhcurveto
          -94 -50 callsubr
          -123 61 -76 -1 callgsubr
          -43 -118.99000549316406 rcurveline
          -37 callsubr
          -18 89.00999450683594 -55 78.99000549316406 116 callsubr
          -157 -163 rcurveline
          106 -88 150 169 128 -117 57 -108.00999450683594 29 -180 rlinecurve
          84.00999450683594 -49.99000549316406 -117 30 -89 hhcurveto
          -281 -278 -258 -452 -214 130 -247.99000549316406 275.99000549316406 386 207.02000427246094 403.97999572753906 481 272 -92.02000427246094 191 callgsubr
          156 callsubr
          197 hvcurveto
          103 -783.0200042724609 rmoveto
          53 callgsubr
          -41.99000549316406 -15.009994506835938 -84 270 callgsubr
          -51 rrcurveto
          -258.00999450683594 -40 -134.99000549316406 -217.99000549316406 -168.02000427246094 hhcurveto
          -145.99000549316406 -78 151.99000549316406 160 270.99000549316406 -59 callgsubr
          309 240 179 74.02000427246094 -179 -60 -3 hvcurveto
          endchar
        </CharString>
        <CharString name="exclam">
          -424 -22 95 callgsubr
          -271.9800109863281 43 hstemhm
          130.3300018310547 496.6600036621094 hintmask 01100000
          401.97999572753906 1777.990005493164 rmoveto
          81 callsubr
          hintmask 10100000
          -93.99000549316406 19 callgsubr
          endchar
        </CharString>
        <CharString name="exclamdbl">
          193 -22 95 callgsubr
          hstem
          130.3300018310547 1113.6600036621094 vstem
          401.97999572753906 1777.990005493164 rmoveto
          81 callsubr
          617 hmoveto
          81 callsubr
          -710.9900054931641 19 callgsubr
          617 hmoveto
          39 callsubr
          -81 -64 -83 -11 hvcurveto
          -78 -10 59 -46.97999572753906 69.97999572753906 hhcurveto
          88 9 callgsubr
          -93.99000549316406 hhcurveto
          endchar
        </CharString>
        <CharString name="exclamdown">
          -424 1093.979995727539 191 callsubr
          hstem
          93 496.6000061035156 vstem
          412 1093.979995727539 rmoveto
          84.99000549316406 81 64 83 11 hvcurveto
          78 10.020004272460938 -59 47 -70 hhcurveto
          -88 -77 -58 -89 -12 hvcurveto
          -68 -6 callsubr
          34 -57.02000427246094 94 hhcurveto
          -94 -1527.9700012207031 rmoveto
          156 1289.9700012207031 rlineto
          -158 hlineto
          252 callsubr
          -1289.9700012207031 rlineto
          225 hlineto
          endchar
        </CharString>
        <CharString name="f">
          -415 -32 callsubr
          388.00001525878906 249 callsubr
          107 callsubr
          743.9900054931641 -577.0000152587891 147 callgsubr
          hintmask 11011000
          280.97999572753906 -38 callsubr
          hintmask 11100100
          -80 callsubr
          hintmask 11011000
          238 callgsubr
          hintmask 11100100
          22 -48 -50 -82 callsubr
          147 callsubr
          -17 callsubr
          hintmask 11011000
          139 hlineto
          endchar
        </CharString>
        <CharString name="f_f">
          280 -32 callsubr
          388.00001525878906 249 callsubr
          107 callsubr
          1439 -1272.010009765625 147 callgsubr
          496.52000427246094 147 callgsubr
          hintmask 11011000
          280.97999572753906 -38 callsubr
          hintmask 11100100
          -80 callsubr
          hintmask 11011000
          238 callgsubr
          hintmask 11100100
          22 -48 -50 -82 callsubr
          147 callsubr
          -17 callsubr
          hintmask 11011000
          139 hlineto
          695 hmoveto
          -17 callgsubr
          hintmask 11100010
          194.99000549316406 -45 callgsubr
          -210.99000549316406 hlineto
          49 callgsubr
          151 16 126 68.02000427246094 110 110 1 rlinecurve
          68 155 callsubr
          hintmask 11011000
          238 callgsubr
          hintmask 11100010
          22 -48 -49.99000549316406 4.0200042724609375 -50 hhcurveto
          -245 -140.99000549316406 -179.02000427246094 -268 -36 hvcurveto
          -14.009994506835938 -28 callsubr
          hintmask 11011000
          139 hlineto
          endchar
        </CharString>
        <CharString name="f_f_i">
          -99 callgsubr
        </CharString>
        <CharString name="f_f_i_trk">
          864 -57 callsubr
          107 callsubr
          1817 -1650.010009765625 147 callgsubr
          496.52000427246094 147 callgsubr
          489.50999450683594 -61 callgsubr
          hintmask 1100110000000000
          280.97999572753906 -38 callsubr
          hintmask 1101001000000000
          -80 callsubr
          hintmask 1100110000000000
          238 callgsubr
          hintmask 1101001000000000
          22 -48 -50 -82 callsubr
          147 callsubr
          -17 callsubr
          hintmask 1100110000000000
          139 hlineto
          695 hmoveto
          -17 callgsubr
          hintmask 1101000100000000
          194.99000549316406 -45 callgsubr
          -210.99000549316406 hlineto
          49 callgsubr
          151 16 126 68.02000427246094 110 110 1 rlinecurve
          68 155 callsubr
          hintmask 1100110000000000
          238 callgsubr
          hintmask 1101000100000000
          22 -48 -49.99000549316406 4.0200042724609375 -50 hhcurveto
          -245 -140.99000549316406 -179.02000427246094 -268 -36 hvcurveto
          -14.009994506835938 178 callgsubr
          hintmask 1110000010000000
          716 528.0200042724609 43 callgsubr
          209 callsubr
          -23 -372 rmoveto
          -155.02000427246094 200 callsubr
          155 -60 callgsubr
          endchar
        </CharString>
        <CharString name="f_f_l">
          864 -32 callsubr
          388.00001525878906 249 callsubr
          189 callsubr
          2039.990005493164 -1272.000015258789 147 callgsubr
          496.5 198.50999450683594 hintmask 11011000
          864.9900054931641 -38 callsubr
          hintmask 11100100
          -93 callgsubr
          hintmask 11011000
          238 callgsubr
          hintmask 11100100
          -84 callgsubr
          hintmask 11011000
          139 hlineto
          269 callgsubr
          hmoveto
          -17 callgsubr
          hintmask 11100010
          195.02000427246094 -45 callgsubr
          -211 hlineto
          207 callgsubr
          151 16 126 68 110 110 1 rlinecurve
          68.02000427246094 155 callsubr
          hintmask 11011000
          131 callgsubr
          159 rlineto
          hintmask 11100010
          22 -6 callgsubr
          -50.02000427246094 -82 callsubr
          -132 hlineto
          -28 -156.02000427246094 rlineto
          hintmask 11011000
          139 hlineto
          -1211.990005493164 654.0099945068359 -64 callsubr
          endchar
        </CharString>
        <CharString name="f_i_trk">
          169 -57 callsubr
          107 callsubr
          1126.990005493164 -960.0000152587891 147 callgsubr
          494.50999450683594 -61 callgsubr
          hintmask 11001100
          280.97999572753906 -38 callsubr
          hintmask 11010010
          -80 callsubr
          hintmask 11001100
          238 callgsubr
          hintmask 11010010
          22 -48 -50 -82 callsubr
          147 callsubr
          -17 callsubr
          hintmask 11001100
          139 hlineto
          hintmask 11100001
          721 528.0200042724609 rmoveto
          -65 -2.9900054931640625 53 -55 65 hhcurveto
          80 -64 callgsubr
          -28 -372 rmoveto
          -154.99000549316406 150 callgsubr
          109 callsubr
          hlineto
          155 238 callsubr
          -195 hlineto
          endchar
        </CharString>
        <CharString name="ffi_dflt">
          -99 callgsubr
        </CharString>
        <CharString name="fi">
          -92 callgsubr
        </CharString>
        <CharString name="fi_trk">
          -92 callgsubr
        </CharString>
        <CharString name="five">
          6 -346 150.00999450683594 621.9700012207031 154 397.010009765625 169 -169 184.99000549316406 hstemhm
          724.9900054931641 217 callgsubr
          hintmask 11101000
          -11 callgsubr
          -195.99000549316406 rmoveto
          -23 -25.009994506835938 60 callgsubr
          5 123 callsubr
          hvcurveto
          -23 -139.99000549316406 rlineto
          -14 40 57 -3 33 hhcurveto
          439.00999450683594 342 230 323.97999572753906 216.99000549316406 -106 155 -272 -63 -99 -11 -18 -66 hvcurveto
          116 426 rlineto
          546.0200042724609 hlineto
          hintmask 11011000
          59 callsubr
          185 rlineto
          -168 hlineto
          -22 -16 rlineto
          hintmask 11101000
          -547 hlineto
          -161.02000427246094 -698 -37 callsubr
          -75.02000427246094 rlineto
          33.02000427246094 78.99000549316406 111 -1 callgsubr
          72 hhcurveto
          153.99000549316406 84.00999450683594 -86 -170 -248.97000122070312 -279 -117 -299.00999450683594 hvcurveto
          endchar
        </CharString>
        <CharString name="fl">
          169 -32 callsubr
          388.00001525878906 249 callsubr
          189 callsubr
          1345 -577.010009765625 147 callgsubr
          hintmask 11011000
          864.9900054931641 -38 callsubr
          hintmask 11100100
          -93 callgsubr
          hintmask 11011000
          238 callgsubr
          hintmask 11100100
          -84 callgsubr
          hintmask 11011000
          139 hlineto
          -517 654.0099945068359 -64 callsubr
          endchar
        </CharString>
</ttFont>
